<svg width="25" height="25" fill="none" xmlns="http://www.w3.org/2000/svg"><g clip-path="url(#clip0)"><path d="M22.656 3.125H2.344A2.346 2.346 0 000 5.469V19.53a2.346 2.346 0 002.344 2.344h20.312A2.346 2.346 0 0025 19.531V5.47a2.346 2.346 0 00-2.344-2.344zm0 1.562c.106 0 .207.022.3.061L12.5 13.81 2.044 4.748a.778.778 0 01.3-.06h20.312zm0 15.625H2.344a.782.782 0 01-.782-.78V6.398l10.426 9.035a.78.78 0 001.024 0L23.437 6.4v13.13c0 .431-.35.782-.78.782z" fill="#FFB942"/></g><defs><clipPath id="clip0"><path fill="#fff" d="M0 0h25v25H0z"/></clipPath></defs></svg>