<svg width="69" height="73" fill="none" xmlns="http://www.w3.org/2000/svg"><path fill-rule="evenodd" clip-rule="evenodd" d="M7.02 13.045l9.559-6.268L34.991 1.57l18.271 4.772 3.812 3.228 6.493 3.008-.025 11.663-.236 17.21-1.58 6.8 4.295 2.478 1.576 7.148.403 1.827-2.988 1.603-7.883 3.822-9.28 2.953-10 1.554-3.286 2.044-2.296-1.857-9.17-1.425L11.6 65.324 1.221 59.71l1.156-5.93.408-3.19 6.4-2.638 1.136-.503-1.253.227-1.066-.228-1.201-6.7.218-27.702z" fill="#00509E" stroke="#00509E" stroke-width=".125"/><path fill-rule="evenodd" clip-rule="evenodd" d="M33.502 21.334c-.02.216-.032.434-.064.65-.01.071-.023.144-.03.216a.364.364 0 000 .1c.005.03.015.059.024.087.017.056.032.111.046.168a.52.52 0 01.2.415h0v.002h0c-.529.442-1.467.676-2.159.82-.43.088-.864.16-1.297.236a42.93 42.93 0 01-2.234.33c-.685.084-1.372.152-2.06.209-1.38.113-2.764.187-4.144.284a34.78 34.78 0 01-1.738.08 24.61 24.61 0 01-1.63-.015 3.815 3.815 0 00-.628.02c-.162.018-.318.05-.477.086-.143.032-.284.064-.428.088-.179.03-.357.045-.538.05-.18.005-.397.02-.572-.016a1.19 1.19 0 01-.382-.165c-.44-.268-.705-.885-.845-1.33a1.87 1.87 0 01-.045-.174c-.007-.03-.013-.065-.028-.093a.343.343 0 00-.115-.102c-.108-.07-.222-.137-.332-.206-.143-.088-.294-.17-.442-.251a44.767 44.767 0 00-1.32-.695c-.15-.076-.303-.155-.457-.225-.192-.088-.28-.04-.481-.02-.097.01-.2.01-.298.01-.096 0-.193-.004-.29-.01-.215-.015-.262-.058-.327-.238a2.013 2.013 0 01-.082-.329c-.02-.106-.034-.213-.05-.32-.011-.078-.022-.163-.043-.24a.866.866 0 01-.03-.27.817.817 0 00-.018-.202c-.02-.088-.067-.182-.102-.267a1.1 1.1 0 01-.045-.125 2.32 2.32 0 01-.095-.736c.004-.1.013-.2.022-.3.01-.123.018-.246.02-.37.009-.334-.105-.637.021-.97.09-.235.22-.431.42-.605.064-.056.132-.107.2-.16a.557.557 0 00.13-.126c.059-.09.145-.258.238-.319a.985.985 0 01.1-.182c.052-.08.108-.16.165-.238.093-.128.192-.254.284-.382.092-.129.199-.246.299-.37.152-.188.312-.382.507-.537.079-.061.162-.117.247-.172.114-.074.23-.146.346-.219a2.36 2.36 0 011.066-.352c.047-.013.126-.018.175-.022.111-.01.224-.018.336-.025a71.752 71.752 0 012.17-.09c.067-.001.136-.003.203-.001.496.01.993.02 1.49.034.24.007.48.026.72.038.15.007.302.014.452.015.103.001.227.002.328-.015h.002c.14.082.949.084 1.175.11.511.058 1.05.121 1.536.28.468.154.897.4 1.31.647.514.31 1.016.635 1.526.95.071.045.16.099.24.127a.2.2 0 00.121.011c.025-.006.049-.018.072-.027a.515.515 0 01.103-.031c.138-.026.31 0 .446.027.174.034.29.125.34.278a.36.36 0 01.012.221c-.015.053-.044.097-.065.147a.218.218 0 00-.018.106l2.123.467c.266.07.533.133.803.188.194.04.388.074.581.114.229.047.448.103.67.174.333.106.66.237.98.371.438.184 1.36.6 1.477 1.052.038.147.027.333.015.483-.01.128-.026.255-.037.383a.763.763 0 00.004.248c.049.088.075.075.173.108.069.023.133.044.196.078h0l.002.002v0c.013.096.014.2.012.296a3.343 3.343 0 01-.016.287c-.012.116-.014.331-.114.417a.191.191 0 01-.053.032h0zm-.187.107c-.072.108-.493.239-.632.271-.04.205-.215 1.138-.144 1.285.113.051.29-.099.373-.155.15-.1.209-.15.292-.303.033-.118.077-.177.07-.303-.086.123-.014.226-.176.317h0-.003a.184.184 0 01-.06-.049c-.089-.114-.021-.352-.003-.484a.888.888 0 01.101-.322c.026-.049.054-.096.077-.147h0l.002-.002h.001c.024-.001.078-.007.098.008a.03.03 0 00.013.005c.007.002.04.007.043.018h.002c.003-.019.023-.14.017-.145-.009 0-.031.028-.071.006h0zm-20.47-5.6h.001s0 0 0 0h.002c.09.003.18.003.269.009.055.003.11.01.16.03.08.033.146.105.2.164a.472.472 0 01.117.22c.014.055.02.122.048.172.03.054.084.082.146.101a.304.304 0 00.045-.054.597.597 0 00.066-.163c.018-.065.035-.128.061-.19a.914.914 0 00.044-.124c.068-.233.062-.481.046-.72-.019-.285-.06-.601.002-.883a.456.456 0 01-.062-.12c-.009-.026-.018-.059-.036-.081-.03-.036-.084-.045-.13-.05-.113-.01-.25-.001-.365.006-.023.028-.045.07-.062.101a16.598 16.598 0 00-.593 1.265 3.636 3.636 0 00-.077.2c-.01.031-.027.08-.03.113l.148.004zm-1.295.958v0h.003l.204.045c-.008-.016-.026-.033-.038-.047a.303.303 0 01-.056-.09c-.057-.142.017-.417.106-.54.168-.234.354-.268.644-.326.014-.017.058-.115.068-.136l.127-.276.112-.247c.023-.051.046-.104.072-.154.064-.124.136-.245.204-.367.075-.133.162-.285.211-.427-.227.071-.505.292-.694.428-.258.185-.312.352-.442.614-.13.263-.259.527-.37.796a3.87 3.87 0 00-.23.713l.08.014zm-.322-.046c.021-.003.06-.003.078-.01.042-.016.072-.13.083-.164.141-.452.374-.875.536-1.32-.08.089-.154.185-.225.279a4.62 4.62 0 00-.181.258l-.334.603c-.001.116-.057.188-.094.294.026.02.026.021.061.037.036.016.037.013.076.023zm3.786.113c.435-.022.864-.092 1.298-.127.58-.046 1.163-.074 1.745-.097.64-.024 1.282-.04 1.923-.054 1.119-.023 2.239-.035 3.358-.064.486-.012.972-.02 1.459-.008.463.011.924.054 1.387.06l-2.083-1.371c-.362-.217-.727-.43-1.089-.647-.169-.101-.354-.216-.547-.277a1.7 1.7 0 00-.335-.065c-.167-.018-.339-.025-.507-.034-.925-.047-1.85-.098-2.775-.127a36.783 36.783 0 00-2.505-.007c-.569.021-1.135.07-1.703.093.016.354.037.708.066 1.06.03.35.064.707.128 1.052.023.122.056.239.096.358.028.085.058.17.084.255zm-.107.154a.35.35 0 00.028.024c.1.076.246.095.373.1.188.006.389-.013.576-.029.269-.022.535-.042.804-.046.326-.004.65.016.97.068.854.138 1.706.289 2.546.488a22.32 22.32 0 012.39.716 13.054 13.054 0 011.216.513c.114.056.232.115.338.182l.23.143c.08.049.167.1.255.138-.13-.207-1.587-1.024-1.875-1.149-.36-.156-.713-.314-1.084-.449a10.018 10.018 0 00-.927-.278 19.703 19.703 0 00-1.046-.235 33.787 33.787 0 00-1.92-.32 6.602 6.602 0 00-1.468-.041c-.23.016-.46.036-.689.06a8.936 8.936 0 00-.441.054c-.077.012-.205.03-.276.061zm16.65 1.716c-.33-.597-1.628-1.334-2.372-1.444.08.025.164.062.238.092a14.53 14.53 0 01.805.37c.082.042.178.088.254.137.157.101.315.203.462.315.127.097.247.202.367.305.078.066.16.171.247.225zm-21.112-1.208c-.06.101-.04.128-.03.238l.194.052c.014-.11.052-.382-.164-.29zm1.127.503a.47.47 0 00.355.07c.029-.153.06-.325-.16-.358-.201-.03-.25.15-.195.288zm2.363 1.631c.008-.081.043-.242-.008-.31-.03-.042-.088-.055-.14-.059-.038.128-.064.367.148.37zm19.274-.646c-.083.025-.157.057-.237.09-.12.05-.223.076-.354.093-.252.032-.506.053-.76.074l.065 1.127c.308-.023 1.005-.115 1.231-.295.077-.19.111-.89.055-1.09zm-8.836 1.96a1.14 1.14 0 00.127-.226c.049-.105.091-.214.133-.322.063-.167.121-.337.186-.504.098-.253.055-.226-.215-.217a137.463 137.463 0 01-3.44.038c-.299-.002-.604-.002-.902-.017-.39-.019-1.756-.131-2.047.025-.21.114-.378.335-.465.537-.04.094-.095.297-.04.39.054.092.046.066.159.086.182.032.37.053.555.072.256.026.514.046.77.064a53.01 53.01 0 001.904.094 52.29 52.29 0 001.945.033c.26-.001.52-.005.78-.015.182-.007.37-.016.55-.038zm-10.643.47c.007-.075.026-.204-.014-.27-.03-.052-.1-.086-.156-.111-.122-.056-.252-.106-.376-.159-.256-.11-.514-.216-.771-.324a31.109 31.109 0 01-.482-.207 6.754 6.754 0 01-.362-.169c-.119-.06-.668-.377-.77-.366a.345.345 0 00.003.216c.027.093.044.094.132.138.123.063.244.129.368.192.153.078.312.152.468.225.232.108.465.215.698.32.265.118.532.236.8.347.098.04.197.08.297.117.044.016.116.043.165.05h0zm17.974-1.953a3.88 3.88 0 00-.485.001c-.199.01-.397.028-.596.047-.335.032-.67.073-1.007.101-.112.01-.225.015-.337.025a.643.643 0 00-.198.041c-.104.046-.19.155-.254.238-.127.16-.368.478-.316.682.008.003.01.005.014.01a.444.444 0 00.065.008l1.517-.136c.264-.023.53-.04.793-.063.174-.015.35-.031.522-.053.074-.01.241-.029.307-.058.053-.12-.003-.691-.025-.843zm-4.005.252c-.81.048-1.622.082-2.433.122a.475.475 0 00-.237.059.435.435 0 00-.137.199c-.058.135-.105.277-.159.415-.031.08-.068.158-.1.238-.01.026-.035.085-.015.111.025.034.14.024.18.022.167-.01.335-.028.503-.04.792-.056 1.585-.11 2.378-.16.122-.009.247-.01.369-.02a.485.485 0 00.227-.063c.12-.083.132-.283.138-.407.01-.188-.047-.273-.18-.407a.287.287 0 00-.132-.078c-.113-.03-.283.002-.402.01zm-17.29-.674a.88.88 0 00-.05.195 3.162 3.162 0 00-.033.298 7.275 7.275 0 00-.01.759c.01.244.055 1.088.231 1.274.2-.156.177-.978.168-1.2a7.493 7.493 0 00-.053-.641 2.815 2.815 0 00-.086-.457c-.036-.12-.025-.184-.167-.228zm.776 2.128l-.01.315c.221.127 1.744.705 1.945.692-.046-.126-.786-.448-.935-.525l-1-.482zm20.328.173c-.064 0-.131.006-.196.01l-.321.023c-.282.023-.564.048-.846.074-.43.038-.86.081-1.289.117-.443.037-.886.078-1.329.12-.205.018-.411.03-.617.047-.127.01-.255.02-.381.036a2.682 2.682 0 00-.308.05c-.017.072-.026.152-.035.225a9.367 9.367 0 00-.059.69c-.002.067-.007.159.004.225.014.002.057-.002.068-.003l.175-.013.6-.053c.6-.055 1.197-.113 1.795-.173.219-.022 2.56-.258 2.626-.327.067-.123.117-.875.113-1.048h0zm.863.44l-.764.093c-.014.197-.012.55-.106.72v0h0-.001c-.203.144-2.284.288-2.705.338-.452.053-.903.113-1.355.165-.292.034-.585.067-.878.09a7.64 7.64 0 01-.335.023c-.065.002-.146.005-.21-.003h-.001l-.002-.002h0a1.552 1.552 0 01-.024-.441c.004-.113.011-.227.008-.34l-2.262.15c.015.18.034.361.065.54.023.13.052.264.097.39.058.165.147.327.317.42.126.07.277.09.422.097.2.01.408-.003.607-.013a36.35 36.35 0 002.877-.27c.93-.118 1.857-.256 2.781-.405.141-.023.282-.042.424-.06.109-.014.218-.027.326-.043.14-.021.305-.05.417-.135.129-.097.176-.261.206-.404.026-.124.04-.252.053-.378.018-.177.03-.355.043-.532h0zm-17.966.492c.024.324.08.653.161.97.107.422.335 1.102.72 1.389.11.082.25.146.398.107.262-.07.418-.43.483-.646.136-.452.16-.973.123-1.44-.047-.6-.182-1.28-.47-1.829-.121-.232-.41-.686-.757-.66-.313.024-.474.435-.542.658-.139.458-.151.979-.116 1.451zm4.032.225c-.069.2-.005.725.102.907.12.206.407.373.658.417.38.067.773.1 1.158.122.334.02.669.03 1.004.04.256.022 1.47.078 1.639-.045.159-.115.181-1.3-.022-1.363l-2.784-.056c-.12-.004-.241-.011-.361-.018-.162-.01-.322-.018-.484-.025a9.66 9.66 0 00-.546-.012 1.56 1.56 0 00-.364.033zm4.705 1.454c.01.012.024.029.035.037.02.014.089.024.114.03.151.03.318.065.473.078a.576.576 0 00.187-.009c.075-.017.128-.028.2-.034l-1.009-.102zm10.114-2.27c-.007.003-.014.005-.016.015-.002.007-.025.05-.03.06-.023.049-.043.1-.06.151a1.03 1.03 0 00-.048.437c.005-.04.019-.09.028-.125l.062-.233c.025-.097.055-.206.064-.305zm.084.21a.49.49 0 00-.065.285l.043-.123c.009-.054.017-.107.022-.161z" fill="#fff" stroke="#fff" stroke-width=".054"/><path fill-rule="evenodd" clip-rule="evenodd" d="M23.14 23.98l1.055.106c-.348.014-.146.12-.9-.034-.128-.026-.105-.018-.155-.072zm-2.942-1.432l2.784.056c.207.065.183 1.252.023 1.369-.165.12-1.352.07-1.641.046-.685-.021-1.51-.048-2.163-.163-.253-.045-.54-.214-.66-.418-.105-.18-.173-.708-.101-.911.27-.084 1.386.01 1.758.02zm-5.791-.243c-.037-.493-.017-1.014.116-1.453.447-1.467 1.607-.332 1.776 1.832.037.481.007 1.007-.123 1.44-.112.372-.405.9-.888.54-.52-.387-.822-1.563-.881-2.36zm17.973-.497c-.112 1.614-.157 1.347-1.472 1.559-1.69.272-3.954.596-5.658.675-1.052.05-1.385.083-1.512-1.44l2.27-.15c.006.237-.04.581.015.783.336.045 2.302-.22 2.777-.275.428-.05 2.505-.197 2.703-.337.091-.165.09-.506.106-.72l.771-.095zm-6.156.039c.309-.075.948-.101 1.308-.135.448-.041.881-.082 1.329-.12.493-.04 2.341-.222 2.656-.223.005.17-.05.934-.114 1.053-.1.104-5.194.584-5.27.57-.03-.169.05-.97.09-1.145zm-15.042-.653l1.005.485c.163.083.904.404.938.53-.193.022-1.754-.577-1.952-.694l.01-.32zm-.635.407c-.263-.268-.307-2.152-.14-2.534.14.043.129.089.173.23.138.45.254 2.09-.033 2.304zM27.7 19.742c.23-.014.4-.068.537.07.114.115.191.203.18.41-.025.524-.2.457-.737.491-.791.05-1.583.104-2.378.161-.853.062-.75.125-.57-.335.21-.54.192-.657.535-.675.814-.04 1.62-.074 2.433-.122zm.81.888c-.056-.213.21-.554.315-.686.247-.311.274-.261.792-.305.544-.046 1.585-.188 2.091-.149.022.15.079.731.025.848-.165.076-1.337.148-1.624.175l-1.518.136c-.099-.008-.05-.005-.081-.019zm-17.21-.242c-.137-.07-.245-.129-.368-.191-.085-.044-.106-.044-.133-.14a.341.341 0 01-.002-.22c.098-.015.624.29.774.367.328.169 1.203.523 1.614.7.573.245.582.192.548.544-.228-.028-2.031-.855-2.433-1.06h0zm13.076.59c-1.085.136-5.367-.006-6.507-.21-.126-.022-.11.003-.162-.087-.053-.09-.005-.288.04-.392.1-.234.28-.438.467-.538.29-.157 1.638-.046 2.048-.026.764.038 3.519.008 4.342-.02.279-.01.315-.031.218.22-.103.267-.3.87-.446 1.054zm7.48-1.708c.253-.021.505-.04.761-.074.295-.038.364-.114.595-.184.057.194.022.908-.055 1.095-.217.173-.884.27-1.237.296l-.065-1.133zm-17.918.395c-.213 0-.197-.232-.154-.375.23.017.172.175.154.375zm-2.368-1.632c-.059-.146-.002-.322.197-.293.208.031.199.177.164.364a.473.473 0 01-.361-.071zm-1.127-.507c.2-.086.192.122.17.296l-.201-.054c-.011-.127-.029-.143.031-.242zm21.123 1.218c-.086-.048-.166-.154-.257-.231a5.519 5.519 0 00-.828-.62c-.171-.11-1.102-.547-1.336-.61.723.088 2.087.838 2.421 1.461zM14.902 17.02c.186-.083 1.133-.157 1.41-.177a6.52 6.52 0 011.47.042c1.162.162 2.818.443 3.893.833.404.146.701.282 1.084.448.264.115 1.783.959 1.881 1.159-.146-.062-.354-.199-.493-.286-.335-.21-1.157-.551-1.554-.694-1.74-.625-3.084-.904-4.935-1.204-1.39-.226-2.42.208-2.756-.12zm-.265-2.881c.562-.022 1.13-.072 1.706-.093 1.714-.062 3.59.048 5.28.134.776.04.858.057 1.391.376.382.23.733.433 1.09.648l2.091 1.377c-.466-.006-.931-.05-1.398-.061a28.584 28.584 0 00-1.459.009c-2.112.054-4.997.054-7.026.214-.43.034-.87.105-1.3.127-.067-.217-.136-.373-.181-.616-.109-.58-.169-1.533-.194-2.115zm-.625-.28c-.057.117-.007.041-.075.117l.043.008c.134.049.053-.069.065.06.144.013.004-.092.059.032l-.027.083c-.052-.063-.001-.026-.069-.072-.073-.05.011-.03-.093-.034.053.076.176.071.191.183l-.05.167c-.117.528.138 1.187-.092 1.729-.068.159-.067.308-.175.41-.27-.082-.104-.267-.314-.495-.195-.212-.223-.189-.628-.202-.041.124.021.068-.21.148l-.022.008c-.154.05-.106.027-.212-.012-.037-.013.07-.018-.074-.018.071-.063.037-.098.147-.035.069.039-.031.034.1.026l-.161-.117c-.341.068-.49.11-.643.324-.086.12-.163.395-.106.537.034.085.084.109.097.144l-.212-.047c-.03.058.028.126-.185.08-.113-.026-.103-.053-.138-.126-.06-.016-.03-.002-.077-.023-.05-.023-.038-.02-.063-.04.04-.116.093-.176.094-.294-.103-.029-.058.028-.085-.115l-.096.024c-.09.057-.173.218-.238.318-.11.17-.525.298-.75.891-.127.334-.013.639-.02.97-.015.588-.12.783.052 1.404.037.136.121.279.147.392.042.186-.012.259.047.473.05.174.072.602.175.888.064.176.108.22.325.235.165.012.425.017.587 0 .228-.023.293-.065.483.021.351.16 1.84.937 2.219 1.172.571.354.408.217.521.576.171.54.446 1.085.845 1.329.341.208.484.192.95.18.881-.023 1.115-.288 2.073-.244 1.05.05 2.338.008 3.367-.065 3.113-.22 5.322-.282 8.438-.823 1.178-.205 2.721-.442 3.454-1.055a.516.516 0 00-.201-.413c-.17-.04-.076-.034-.142-.026-.003 0 .044.06-.125.009-.088.16-.148.208-.294.305-.088.059-.263.208-.377.154-.072-.143.099-1.062.144-1.29.18-.04.573-.173.633-.273l.185-.104c.144-.057.144-.242.166-.448a2.97 2.97 0 00.003-.581 1.024 1.024 0 00-.195-.078c-.115-.039-.127-.025-.175-.11-.056-.154.102-.786.018-1.114-.116-.45-1.03-.863-1.475-1.05-1.553-.652-1.623-.475-3.034-.847l-2.125-.467c-.016-.16.158-.217.071-.476-.048-.143-.154-.24-.338-.277-.767-.15-.44.23-.982-.106-.52-.322-1.014-.642-1.528-.95-1.104-.662-1.495-.773-2.843-.927-.242-.027-1.038-.03-1.176-.11-.284.047-1.152-.028-1.5-.038-.501-.015-.991-.023-1.491-.034-.333-.008-2.689.084-2.883.138h0z" fill="#fff" stroke="#fff" stroke-width=".054"/><path fill-rule="evenodd" clip-rule="evenodd" d="M11 16.308l.097-.024c.027.143-.018.086.085.115l.334-.605c.11-.169.295-.415.418-.549-.147.407-.402.889-.542 1.335-.063.2-.07.163-.164.176.035.073.025.1.138.125.213.047.156-.02.185-.079l-.084-.014c.096-.491.392-1.09.601-1.513.146-.295.192-.435.443-.616.163-.117.475-.361.702-.43-.074.216-.3.57-.417.8-.056.108-.354.787-.381.815l.162.117c-.132.008-.032.013-.1-.026-.111-.063-.077-.028-.148.035.144 0 .037.005.074.018.106.04.058.061.212.012l.023-.008c.23-.08.168-.024.209-.149l-.153-.003c.006-.172.656-1.553.764-1.685.647-.04.448.042.598.247l.05-.167c-.015-.112-.138-.107-.19-.183.103.004.02-.017.092.034.068.046.018.01.07.072l.026-.083c-.055-.124.085-.019-.06-.032-.01-.129.07-.011-.064-.06l-.043-.008c.068-.076.018 0 .075-.118a2.34 2.34 0 00-1.065.352c-.573.364-.664.388-1.1.927-.104.13-.202.235-.298.37-.123.17-.487.63-.548.802zm8.328 6.893c-.111-.639 1.504-.628 1.586-.026.047.345-.401.49-.78.498-.363.007-.76-.213-.806-.472zm1.485.431c.028-.07.431-.278.149-.68-.107-.152-.123-.153-.316-.237a1.209 1.209 0 00-.448-.112c-.354-.01-.587.032-.823.181-.255.162-.265.613.17.856.294.163.497.184.869.13.226-.034.25-.085.4-.138zm12.464-1.405c-.001-.116.005-.216.073-.316-.006.067-.013.11-.023.174l-.05.142zm-.169.178c-.058-.343.134-.677.134-.677.003-.015.016-.015.024-.022-.017.196-.156.6-.158.699zm.206-.969c.077.048.096-.106.058.146-.064.02.046.002-.048-.017-.028-.005 0-.02-.11-.013-.074.16-.142.213-.178.469-.028.199-.105.441.06.53.167-.094.082-.192.181-.324.01.138-.035.19-.07.313.17.051.123-.008.126-.009.066-.008-.028-.015.142.026-.078-.333-.099-.176-.04-.574.03-.209.044-.442.064-.651l-.185.104zm-5.533 19.109c.038-.047.071-.102.102-.153.046-.08.09-.161.13-.243.117-.227.224-.46.328-.691.277-.62.537-1.246.794-1.873.217-.53.43-1.063.643-1.595.156-.388.31-.777.468-1.164.118-.288.284-.619.6-.773.177-.088.382-.114.582-.123.28-.014.57 0 .852.007a.56.56 0 01.097.049c.347.222.367.794.359 1.136a7.074 7.074 0 01-.086.878c-.048.322-.11.644-.173.964-.079.39-.163.778-.238 1.168a8.992 8.992 0 00-.15.995.563.563 0 00.025.213c.065.206.239.382.409.527.091.077.187.15.282.224.084.064.17.13.246.201.417-.193.854-.454 1.005-.874.1-.279.065-.592.017-.877-.032-.186-.072-.371-.11-.556-.046-.22-.09-.439-.126-.66-.051-.312-.11-.622-.175-.931-.05-.244-.103-.488-.146-.732-.062-.346-.115-.73-.006-1.072.08-.253.238-.461.437-.65v-.001h.002c.287-.008.587-.02.873.001.2.014.402.047.578.137.16.082.278.2.379.336.14.19.25.415.344.625.148.328.278.666.408 1 .19.487.376.974.569 1.46.31.784.66 1.554.99 2.331a14.87 14.87 0 01.568 1.574c.047.153.093.309.15.46.045.115.097.228.171.332.113.157.265.276.434.383.27.17.578.318.869.457.042.02.085.037.13.053.298.1.645.09.958.074.354-.018.71-.048 1.063-.003.233.03.455.09.62.249.105.102.176.23.239.356.082.166.156.331.246.494.11.197.208.4.317.598.122.223.282.5.477.679.51-.241.949-.59 1.428-.875.115-.068.343-.124.477-.154.253-.055.52-.09.78-.094.414-.008.928.06 1.177.392.01.014.026.046.034.063L48.3 45c.035.063.074.13.104.194.114.241.225.484.343.724.118.242.242.482.362.723.084.167.172.392.148.579a.307.307 0 01-.188.259.515.515 0 01-.515-.107l-.326-.471c-.02-.025-.039-.052-.062-.075a8.66 8.66 0 00-.003.633c.005.26.014.518.018.777.006.321.008.646-.014.966-.015.207-.044.5-.14.69h0l-.002.001h0c-.18.063-.548.194-.73.081-.168-.103-.184-.415-.194-.578-.012-.203.018-.393.042-.594.015-.13.035-.304-.04-.422-.064-.099-.18-.144-.3-.17.003.398.178 1.36-.13 1.653-.112.107-.316.28-.5.228-.273-.077-.352-.622-.38-.831a7.443 7.443 0 01-.054-.76 19.745 19.745 0 01-.003-.856c.006-.38.018-.76.026-1.14.006-.294.014-.596-.005-.89a2.31 2.31 0 00-.347.186c-.126.078-.248.161-.37.243-.278.186-.727.497-1.094.448a.588.588 0 01-.326-.158l.825 2.92-.002.002-1.548-.003c-.05.82-.835.985-.89.037-.841.02.12.363-.664.595a.35.35 0 01-.286-.027c-.062-.036-.099-.08-.144-.13-.006-.008-.108-.113-.1-.122.003-.005.007 0 .006-.011-.004-.023-.033-.07-.046-.093l-1.855-.245-.001-.002v-.001c.14-.733.419-1.44.676-2.144.373-1.021.697-2.035.547-3.123-.131-.213-1.148-.694-1.408-.82-.331-.158-.665-.313-.997-.47-.075-.036-.46-.213-.505-.264-.335-.383-.509-.928-.656-1.39-.09-.286-.178-.576-.295-.855a2.262 2.262 0 00-.423-.693 28.313 28.313 0 00-.117 2.367c-.012.856 0 1.711.018 2.566.03 1.46.086 2.922.076 4.382-.007.836-.273 1.125-1.23 1.105-.3-.007-.613-.06-.829-.26-.216-.199-.284-.499-.313-.765a4.5 4.5 0 01-.018-.562c.005-.225.018-.45.032-.676.035-.56.074-1.116.084-1.677a14.95 14.95 0 00-.1-2.083l-.674-.002a12.68 12.68 0 00-.11 2.003c.01.564.052 1.124.087 1.686.015.233.029.466.033.698a4.58 4.58 0 01-.02.588c-.032.28-.107.599-.34.805-.158.14-.364.205-.582.23-.366.041-.858.06-1.149-.183-.235-.197-.288-.52-.297-.794-.11-3.122.087-6.245-.004-9.367-.031.026-.058.029-.07.078l-.404.76c-.178.433-.798 2.134-1.207 2.32-.376.04-.735-.002-1.043-.209-.283-.19-.473-.483-.626-.763-.18-.331-.33-.675-.52-1.003l-1.615-2.652a12.97 12.97 0 00-.07 1.044 4.14 4.14 0 00.045.729c.047.295.131.587.216.876.134.46.271.917.396 1.378.079.289.166.576.253.863.099.327.2.654.296.982.11.372.217.746.309 1.122.076.313.148.639.18.958v.002l-.002.002-2.259-.012c-.003.261.002.524.007.786.006.314.013.629.016.943.004.374.004.75-.015 1.122-.008.16-.019.32-.038.477a2.636 2.636 0 01-.068.377v.002h-.001c-.453.188-.58.178-1.038.01h0l-.001-.002v0c-.093-.392-.1-.824-.098-1.223 0-.212.004-.423.004-.635 0-.347.006-.694.011-1.041.003-.138.01-.852-.248-.868-.15-.01-.272.215-.312.316-.02.048-.027.165-.031.219-.006.07-.012.144-.012.214-.003.349.016.697.017 1.045 0 .244.007.488.01.731.002.217 0 .434-.015.65-.013.193-.037.39-.089.578v.002h-.002c-.505.208-.517.208-1.034.02v-.001l-.002-.001v0a4.776 4.776 0 01-.11-.902 18.38 18.38 0 01-.011-1.109c.004-.303.01-.606.016-.91.004-.264.008-.53.001-.794l-2.094-.003-.002-.002v-.002c.05-.622.192-1.24.358-1.845.179-.648.388-1.288.58-1.932.197-.666.377-1.337.492-2.018a8.081 8.081 0 00.098-2.096c-.08.063-.16.166-.219.245a6.231 6.231 0 00-.286.429c-.236.38-.453.77-.666 1.16-.181.334-.36.67-.537 1.006-.131.247-.261.497-.398.742-.073.13-.138.263-.214.391a.881.881 0 01-.218.264c-.212.16-.534.149-.793.126h0l-.002-.001h0a.986.986 0 01-.103-.631c.034-.198.126-.386.228-.563.116-.199.246-.39.363-.59.356-.607.666-1.235 1.02-1.843.226-.387.44-.778.649-1.173.158-.299.312-.601.477-.898.214-.387.474-.83.872-1.09.348-.228.769-.303 1.19-.332.307-.02.62-.018.927-.009.413.014.826.041 1.237.072.053.004.106.012.157.024.575.136.982.79 1.231 1.23.22.386.412.788.605 1.185.214.44.428.878.668 1.306.265.472.563.939.925 1.358h0zm7.442-8.198c-.14.062-.26.144-.374.238-.22.18-.394.363-.66.498-.378.193-.824.225-1.25.203-.806-.041-1.5-.418-1.912-1.037a2.11 2.11 0 01-.355-1.34c.04-.5.266-.959.645-1.326.265-.257.55-.444.933-.527.236-.052.484-.06.726-.07.305-.01.602-.022.905-.06h.003c.183.152.383.275.59.4.186.111.377.224.54.364.282.244.416.522.463.868.033.244.019.498-.014.742a6.903 6.903 0 01-.239 1.046v.001h-.001zm-9.88-.297c-.098.09-.197.174-.3.259-.053.044-.113.092-.154.147a.6.6 0 00-.089.225c-.038.165-.065.335-.096.501-.08.423-.263.784-.65 1.048-.088.06-.182.112-.281.157-.22.1-.46.16-.704.186-.618.066-1.349-.092-1.775-.52-.45-.451-.56-1.182-.37-1.75.257-.773.974-1.157 1.848-1.192.099-.003.2-.004.3.006.04.005.09.015.131.014.086 0 .248-.088.322-.124a.705.705 0 00.223-.154.598.598 0 01.108-.091c.08-.053.177-.097.266-.135h.002l.003.001v.002c.023.207.004.36.13.547l.425.414c.072.077.15.163.23.233a.328.328 0 00.11.068c.036.013.07.022.107.037.074.03.146.074.213.117h0l.001.004h0zm17.226 8.735l.763.59v.004h-.002c-.234.145-.333.314-.404.553-.047.16-.078.318-.163.465-.111.192-.288.317-.502.41a1.335 1.335 0 01-1.052.01c-.287-.12-.543-.343-.64-.616-.133-.374-.142-.775.182-1.074a1.46 1.46 0 01.593-.306c.237-.067.499-.099.747-.099.121 0 .37.01.478.063h0zm5.602 2.125c-.023.337-.126.69-.386.945a1.15 1.15 0 01-.759.321 1.375 1.375 0 01-.9-.28 1.016 1.016 0 01-.41-.83c.004-.267.117-.523.319-.72.26-.255.634-.38 1.017-.35.15.012.322.037.455.103a.635.635 0 01.206.167.7.7 0 00.301.23c.245.098.606.11.869.11h.002l.002.003-.001.001a.855.855 0 00-.051.16.176.176 0 01-.006.04c-.003.001-.01-.002-.013-.003a.107.107 0 00-.032-.004.64.64 0 00-.19.048.491.491 0 01-.07.01l-.146.02-.207.029h0z" fill="#fff" stroke="#fff" stroke-width=".054"/><path fill-rule="evenodd" clip-rule="evenodd" d="M33.95 33.941c-.853.81-.422 1.47-.11 3.384.256 1.57.75 2.259-.79 2.97-.321-.299-1.003-.656-.964-1.168.12-1.549 1.266-4.763.193-5.188-1.2-.026-1.63-.088-2.03.888-.483 1.178-2.031 5.182-2.468 5.723-1.633-1.889-2.15-4.998-3.586-5.105-4.1-.305-3.448.17-5.348 3.43-.373.64-.64 1.194-1.02 1.842-.373.636-.822 1.117-.489 1.78.87.077.9-.207 1.221-.779.425-.758 1.66-3.24 2.112-3.587.27 2.86-1.333 5.497-1.527 7.898l2.096.004c.027 1.048-.113 2.837.104 3.716.522.19.53.187 1.032-.02.15-.539.094-1.315.093-1.957 0-.345-.02-.707-.017-1.045.001-.075.02-.375.043-.435.167-.412.587-.598.567.554-.005.348-.01.691-.01 1.04 0 .62-.036 1.316.093 1.857.461.17.585.178 1.034-.01.208-.766.085-2.737.098-3.706l2.26.011c-.103-1.024-.74-2.832-1.037-3.924-.6-2.211-.775-2.11-.587-4.038l1.622 2.66c.58 1.005.784 2.123 2.184 1.974.399-.181.976-1.761 1.205-2.319l.404-.76c.012-.052.048-.058.076-.084.091 3.103-.104 6.281.004 9.374.028.805.42 1.09 1.442.975 1.72-.194.46-2.667.93-6.01l.68.001c.46 3.76-.878 5.981 1.14 6.023.969.02 1.221-.277 1.227-1.101.021-2.88-.247-6.55.025-9.322.682.71.695 2.161 1.378 2.943.114.13 2.692 1.2 2.911 1.554.26 1.878-.888 3.515-1.222 5.27l1.855.245c.124.206-.062.002.14.225.058.065.181.23.426.157.782-.231-.183-.577.669-.595.053.95.836.78.883-.037l1.55.002-.828-2.929c.593.566 1.46-.43 2.146-.713.087 1.357-.414 5.516.911 4.252.307-.293.131-1.23.13-1.654.589.12.268.586.304 1.188.038.632.186.751.919.496.276-.547.096-2.28.139-3.072.026.024.053.06.068.08l.326.471c.265.258 1.02.214.549-.728-.122-.243-.24-.474-.362-.723-.128-.261-.218-.46-.343-.724a29.723 29.723 0 00-.21-.389c-.507-.676-2.153-.307-2.43-.143-.499.298-.921.636-1.43.876-.314-.287-.58-.89-.796-1.28-.345-.622-.34-1.001-1.102-1.097-.764-.097-1.567.156-2.153-.124-1.876-.898-1.158-.772-2.193-3.207-.332-.781-.678-1.544-.99-2.332-1.414-3.566-1.162-3.607-3.147-3.558h0zm1.271-1.596c.82-2.737-.39-2.63-1.34-3.416-1.17.148-1.768-.114-2.561.656-1.377 1.335-.445 3.592 1.618 3.698 1.52.078 1.604-.638 2.283-.938zm-9.881-.297c-.418-.269-.236.005-.66-.455l-.425-.414c-.127-.188-.107-.332-.131-.549-.47.2-.275.223-.597.38-.438.214-.211.083-.755.104-2.126.085-2.301 2.108-1.475 2.937.607.61 1.934.735 2.755.176.337-.23.557-.555.649-1.045.167-.895.082-.617.639-1.134z" fill="#fff" stroke="#fff" stroke-width=".054"/><path fill-rule="evenodd" clip-rule="evenodd" d="M42.566 40.787c-.31-.151-2.545-.14-1.994 1.413.18.51.96.924 1.688.605.888-.39.399-1.018 1.068-1.428l-.762-.59zm6.317 1.823c-1.563-.005-.798-.53-1.83-.61-.729-.058-1.324.443-1.333 1.067-.02 1.294 2.32 1.708 2.448-.16.05-.007.418-.056.425-.058.377-.144.148.113.29-.24z" fill="#fff" stroke="#fff" stroke-width=".054"/><path fill-rule="evenodd" clip-rule="evenodd" d="M43.06 24.21c-1.507.418-.711 2.93.858 2.494 1.429-.397.719-2.932-.859-2.494zm3.327-.801c-1.465.379-.693 2.56.684 2.243 1.403-.323.688-2.599-.684-2.243zm3.393-.696c-1.22.31-.45 2.17.671 1.89.497-.125.706-.722.474-1.228-.153-.33-.587-.803-1.145-.662z" fill="#fff" stroke="#000200" stroke-width=".054"/><path fill-rule="evenodd" clip-rule="evenodd" d="M56.615 20.134c-.203-.162-.42-.312-.63-.466-.2-.148-.4-.297-.602-.444a22.807 22.807 0 01-.576-.433 8.094 8.094 0 01-.352-.288 1.305 1.305 0 01-.212-.215c-.022-.023-.055-.053-.066-.082-.008-.021-.008-.046-.008-.068 0-.045 0-.089-.003-.134l.016-2.425.001-.001h.001c.302-.108 2.221-.088 2.574-.018h.001l.002.002-.007 4.65-.002.001h-.002c-.246-.014-.068.008-.135-.079h0zm-7.616 13.375h-.002v-.001h-.001v-.001c-.057-.097-.07-.762-.074-.886a57.92 57.92 0 01-.015-1.724c.003-.868.015-1.737.028-2.605-.291 0-.583-.007-.874-.012-.38-.008-.761-.016-1.142-.02a34.277 34.277 0 00-1.266.001c-.173.005-.346.01-.518.023a3.31 3.31 0 00-.375.043l.002 5.185-.002.002h-.002c-1.533.038-3.069.017-4.602.017-.309 0-.617.007-.925.016-.222.007-.446.017-.669.019-.221.002-.565.006-.74-.136-.163-.13-.191-.385-.206-.568a7.05 7.05 0 01-.015-.528l.002-.736V24.37c0-.11-.003-.221 0-.331a.975.975 0 01.028-.216c.029-.11.09-.216.148-.316h.002c.059-.02.172-.098.223-.132.142-.094.28-.193.417-.292.388-.28.771-.567 1.153-.854l1.037-.783c.217-.165.436-.333.659-.492l5.64-4.213c.007-.005.074-.048.082-.06 0 0 0 0 0 0-.002-.004.014-.008.016-.009.025-.009.05-.02.074-.03h.003l.958.746c.08.074.16.137.25.2.079.055.156.108.231.167.16.125.296.263.464.38.168.118.302.26.463.382.073.056.147.107.22.16.093.067.176.136.258.211.15.138.328.235.484.365.267.224.54.444.81.664.442.358.886.714 1.33 1.069.48.382.962.763 1.451 1.136.174.132.348.264.527.391.058.041.117.082.177.121.031.02.072.047.106.06h.001l.001.002v0c.077.214.941.796 1.173.993h0l.001.002v0c.006 2.677 0 5.353 0 8.03 0 .221 0 .443-.004.664-.003.16-.01.323-.028.482-.022.178-.063.405-.224.529-.178.138-.5.14-.722.14-.21 0-.42-.009-.629-.015a29.93 29.93 0 00-.852-.014c-1.51 0-3.021-.012-4.532.002h0zm-1.848-17.872c-.233.124-.424.297-.634.448-1.499 1.084-2.961 2.211-4.423 3.335-1.303 1.003-2.605 2.008-3.931 2.986-.213.158-.43.312-.64.47-.19.143-.534.356-.634.553h0l-.002.001h0c-.05.012-.123.057-.166.082-.09.052-.177.106-.267.158a3.67 3.67 0 01-.742.342c-.66.204-1.183.045-1.562-.498h0v-.003a1.21 1.21 0 01.215-.226c.058-.044.123-.084.183-.126l3.236-2.56c.133-.11.283-.194.412-.308.068-.06.136-.12.209-.176.062-.048.128-.093.193-.138.142-.1.255-.218.39-.323l2.06-1.594c.133-.107.25-.223.391-.323l5.711-4.462h.003c.06.03.122.073.175.11.085.06.167.123.247.187.208.162.41.33.612.5l.527.446c.129.11.259.22.392.327l.794.637c.138.106.281.195.41.31.152.138.309.255.473.378.099.074.193.15.283.232l2.362 1.934c.117.103.25.184.375.278.203.153.4.315.594.475.248.205.494.411.74.617.269.226.538.453.811.675.2.163.405.333.617.482l3.164 2.587v.002h0a1.084 1.084 0 01-.551.472c-.618.242-1.44-.012-1.982-.314a3.48 3.48 0 01-.414-.285c-.165-.127-.326-.26-.485-.392-.21-.174-.418-.351-.634-.518-.095-.074-.315-.244-.435-.272h0-.002v-.001a1.668 1.668 0 00-.195-.21 6.93 6.93 0 00-.285-.254 14.2 14.2 0 00-.494-.4l-7.1-5.64z" fill="#fff" stroke="#fff" stroke-width=".054"/><path fill-rule="evenodd" clip-rule="evenodd" d="M37.783 23.509c-.192.323-.18.375-.177.861v7.228c0 2.385-.158 1.93 2.55 1.93 1.518 0 3.092.02 4.602-.017v-5.186c.094-.102.01-.067.197-.1.337-.057 3.997.022 4.044.03v5.251c1.508-.014 3.023-.002 4.532-.002 2.449 0 2.456.397 2.456-1.783 0-2.677.006-5.353 0-8.03-.206-.175-1.098-.784-1.174-.994-.348-.14-3.868-2.994-4.402-3.441-.174-.146-.314-.21-.484-.366-.213-.194-.273-.214-.477-.37-.184-.141-.27-.247-.464-.382-.198-.14-.27-.227-.464-.38-.194-.154-.288-.19-.48-.368l-.958-.745c-.184.077.005-.016-.172.098l-5.64 4.213c-.49.348-3.223 2.468-3.49 2.553h0z" fill="#fff" stroke="#fff" stroke-width=".054"/><path fill-rule="evenodd" clip-rule="evenodd" d="M36.886 23.427c.099-.193.42-.391.634-.552.202-.152.426-.312.64-.47 2.711-2.001 5.668-4.379 8.355-6.322.237-.171.4-.324.637-.45l7.103 5.643c.243.188.817.648.974.864.318.074 1.416 1.16 1.968 1.467.82.456 2.033.688 2.53-.156l-3.163-2.585c-.58-.409-2.099-1.75-2.763-2.25-.138-.104-.248-.166-.376-.278l-2.36-1.933c-.254-.232-.45-.333-.757-.61-.145-.13-.256-.193-.41-.31l-.795-.638c-.407-.324-1.627-1.409-1.951-1.57l-5.71 4.462c-.16.114-.234.197-.392.323l-2.059 1.594c-.164.128-.224.207-.39.324-.19.132-.213.146-.402.313-.146.129-.262.184-.412.309l-3.237 2.56c-.185.128-.224.13-.397.35.925 1.325 2.455-.016 2.733-.085zm17.36-5.141c.125.191.902.762 1.14.936l.601.443c.227.167.448.32.63.467.084-.073.063.09.085-.228.005-.078-.006-.225-.006-.312l.01-4.005-2.48-.013.02 2.712zM49 33.506l-.001-5.251c-.047-.008-3.707-.087-4.045-.03-.187.033-.102-.002-.197.1.74-.142 3.254-.034 4.181-.037-.003.243-.09 4.97.061 5.218h0z" fill="#fff" stroke="#fff" stroke-width=".054"/><path fill-rule="evenodd" clip-rule="evenodd" d="M54.246 18.286l-.02-2.712 2.479.012-.01 4.006c.001.087.012.234.007.312-.023.318-.002.155-.084.228.07.091-.112.064.132.078l.007-4.647c-.368-.073-2.284-.086-2.571.017l-.016 2.424c.01.207-.021.185.076.282z" fill="#fff" stroke="#fff" stroke-width=".054"/><path fill-rule="evenodd" clip-rule="evenodd" d="M10.508 56.818c.302.356.538.808.29 1.243-.39.688-1.813 1.009-2.576 1.153H8.22L5.722 58.08v-.005h.003c.44-.054.879-.11 1.317-.171.241-.034.493-.069.731-.119.367-.077.929-.234 1.114-.56.113-.2.07-.432-.013-.634-.129-.317-.379-.634-.612-.897l-.001-.001.002-.004h.002c.325-.007.653-.019.977-.046a5.67 5.67 0 00.708-.095c.352-.075.813-.221.989-.53.184-.324.033-.738-.126-1.044l-1.207.895h-.002l-1.376-.624v-.003l1.887-1.682h.002l1.596.724v.003l-.669.501 1.619.52v.001c.17.517.155 1.027-.12 1.511-.407.715-1.175.97-2.035.997zm3.29 3.11l-1.048-.132-.764.974-.002.001-1.417-.437v-.003l3.376-5.106h.002l1.819.591.202-.434h.002l1.967.606.001.002-2.998 5.69-.003.001-1.691-.521-.001-.003.555-1.23zm11.416 2.905l-1.6 2.226h-.003l-1.54-.296v-.003l.792-1.232-7.227-1.393-.001-.003 2.361-5.941.002-.001 2.024.39.001.003-2.11 4.588 1.053.261 1.784-4.376h.002l1.934.441.002.003-2.016 4.33 1.024.247 2.026-4.782.002-.001 1.97.38.002.002-2.614 5.443.61-.833h.002l1.571.302.948-4.549.002-.001 1.961.203.002.002-.645 2.603 1.937-2.799h.002l1.824.161.001.003-.01.036 4.02.062.002.002-.297 1.403h-.002l-.977-.014-1.116 4.828-.002.001-1.671-.026-.002-.002.7-4.52.002-.002 1.391-.29-2.407-.037-.002-.002.097-.537-1.585 5.216-.002.001-1.653-.146-.002-.002.683-2.751-1.55 1.553-.305 1.094-.002.001-1.62-.143-.002-.002.23-1.101zm12.765.248l-1.031.209-.328 1.153h-.002l-1.498.04-.003-.002 1.133-5.843.002-.001 1.936-.022.016-.47.002-.002 2.08-.055.002.002-.547 6.27-.002.002-1.789.047-.002-.002.031-1.326zm6.648-3.011l-.15 1.388v.001l-3.946.35-.003-.002.138-1.494.002-.001 3.957-.244.002.002zm4.481-1.014l-.315 4.153-.002.001-1.408.291h-.002l-.96-3.408.075 3.59-.002.002-1.23.255-.002-.002-.761-5.609.001-.002 2.564-.53.002.001.821 3.161.285-4.042.002-.002 2.652-.549.003.002.405 6.334-.001.002-1.544.32-.003-.002-.58-3.966zm5.968 2.32l-.842-3.044.002-.002 1.783-.58.002.001.663 3.369-.001.002-3.3 1.073h-.002c-.72-.481-1.29-1.085-1.601-1.846-.273-.668-.315-1.37-.203-2.071.136-.853.494-1.688.925-2.454h.002l2.906-.947.003.004-.001.002c-1.1 1.277-2.263 3.059-1.736 4.734.024.075.05.15.08.222.256.628.737 1.13 1.32 1.537zm3.323-4.32l.945 3.188-.001.002-1.374.559-.003-.001-2.298-5.545v-.002l2.521-1.027.002.001 1.893 2.971-1.304-3.612v-.002l1.561-.635h.003l1.939 6.093-.001.002-1.962.8-.002-.001-1.919-2.79zm-42.74-1.033l-2.151 2.79.691.254 1.46-3.044zM38.17 58.84l-.904 3.29.747.019.157-3.31z" fill="#fff"/><path fill-rule="evenodd" clip-rule="evenodd" d="M12.54 55.82c-.361.635-1.04.966-2.039.995.401.47.5.885.295 1.245-.283.497-1.141.88-2.575 1.15l-2.496-1.13c1.073-.132 1.756-.229 2.049-.29.604-.128.976-.315 1.116-.561.192-.337-.017-.849-.625-1.535.741-.015 1.303-.063 1.686-.14.524-.116.854-.293.99-.533.147-.257.104-.607-.127-1.05l-1.21.897-1.373-.623 1.885-1.68 1.594.723-.673.504 1.624.52c.18.549.139 1.052-.121 1.509zm5.393.17l-2.998 5.688-1.689-.521.557-1.232-1.055-.132-.764.975-1.414-.437 3.375-5.103 1.82.592.204-.435 1.964.605zm-2.258.006l-2.173 2.819.699.256 1.474-3.075zm9.694 6.616l-1.758 2.444-1.537-.296.794-1.234-7.23-1.394L18 56.193l2.02.39-2.111 4.59 1.06.263 1.785-4.378 1.931.442-2.017 4.333 1.03.248 2.028-4.784 1.967.38-2.628 5.472.63-.86 1.675.323zm5.925-4.4l-1.86 6.115-1.65-.146.686-2.761-1.558 1.563-.306 1.093-1.618-.143 1.228-5.892 1.958.203-.648 2.619 1.946-2.813 1.822.161zm4.012.1l-.297 1.4-.979-.016-1.116 4.83-1.669-.026.701-4.519 1.417-.295-2.433-.037.253-1.4 4.123.063zm4.979-.22l-.547 6.267-1.787.047.032-1.329-1.038.21-.328 1.154-1.496.04 1.132-5.841 1.938-.022.017-.472 2.077-.054zm-2.11.718l-.913 3.324.755.019.159-3.343zm6.449 1.26l-.15 1.386-3.942.35.137-1.491 3.955-.244zm6.203-3.7l.406 6.331-1.542.32-.584-3.996-.318 4.182-1.405.291-.968-3.432.076 3.617-1.227.254-.76-5.607 2.56-.53.826 3.18.287-4.062 2.65-.548zm4.582-1.489c-1.664 1.933-2.216 3.586-1.656 4.96.236.578.679 1.092 1.328 1.543l-.843-3.052 1.78-.58.663 3.367-3.298 1.073c-.777-.518-1.31-1.133-1.6-1.843-.51-1.253-.27-2.761.722-4.523l2.904-.945zm4.932-1.925l1.938 6.09-1.959.798-1.93-2.807.95 3.206-1.371.558-2.298-5.542 2.518-1.026 1.908 2.996-1.314-3.639 1.558-.634z" fill="#fff"/><path fill-rule="evenodd" clip-rule="evenodd" d="M7.155 13.31c0-.16.22-.21.355-.253l2.196-.836c.27-.123.54-.216.83-.345l1.238-.605c.146-.072.24-.106.378-.18 1.646-.887 3.716-2.13 4.353-3.832.113-.302.203-.263.782-.39 1.42-.312 17.005-4.19 17.457-4.19l5.833 1.42c3.017.786 6.505 1.558 9.63 2.325.63.155 1.278.328 1.96.476.989.216.288.138 1.088 1.204.527.702.53.64 1.15 1.2.197.179.428.342.657.503.895.625 1.977 1.273 3 1.723.92.404 1.413.676 2.465 1.062.24.088 1.631.517 1.631.718v25.41c0 2.338-.484 5.228-1.267 7.32l-.82 2.067c.355.074.574.289.928.363.017-.182.157-.431.223-.578.308-.685.824-2.032 1.018-2.72.114-.405.231-.78.32-1.166.367-1.6.641-3.315.641-5.233V12.79c0-.174-.191-.188-.368-.24-1.534-.455-4.106-1.615-5.59-2.414l-1.505-.935c-.148-.108-.205-.14-.346-.26-.48-.409-.323-.175-.951-.862-1.252-1.37-.219-1.534-1.232-1.75L42.672 3.78c-.694-.153-1.318-.33-2.004-.488-.512-.118-5.819-1.436-6.035-1.432L22.585 4.765c-.652.148-1.328.314-2.008.485-.69.175-1.357.31-2.01.483l-2.51.607c-.628.13-.337.115-.519.676-.63 1.932-4.175 3.53-5.987 4.34-.644.288-2.364.985-3.115 1.207-.17.05-.324.063-.324.228V38.67c0 2.777.627 6.14 1.722 8.623l.423 1.023c.354-.075.573-.29.927-.364l-.428-1.017c-.42-1.075-.761-2.093-1.016-3.24-.346-1.552-.585-3.166-.585-5.025V13.31z" fill="#fff" stroke="#fff" stroke-width=".177"/><path d="M1.934 59.3l1.907-8.251 7.424-3.314c7.067 5.162 15.58 6.541 21.702 6.527l1.597 1.407 1.373-1.22c9.662.258 17.099-3.317 21.976-6.694l7.424 3.44 1.8 8.157c-7.79 4.16-15.823 8.567-30.744 9.79l-1.887 1.566-2.004-1.665c-9.049-.958-21.158-3.086-30.568-9.743v0z" stroke="#fff"/><path fill-rule="evenodd" clip-rule="evenodd" d="M9.483 14.672c0-.147.201-.193.324-.231l2.01-.766c.25-.113.496-.198.762-.316l1.133-.553c.133-.067.22-.098.346-.166 1.507-.812 3.402-1.95 3.986-3.509.103-.276.186-.24.716-.356 1.301-.286 15.572-3.837 15.985-3.837l5.342 1.299c2.763.72 5.956 1.427 8.818 2.13.578.141 1.171.3 1.794.436.907.197.265.126.998 1.102.482.643.485.586 1.053 1.1a6.3 6.3 0 00.601.46c.82.572 1.81 1.165 2.748 1.577.841.37 1.293.619 2.256.973.22.08 1.494.473 1.494.657v23.269c0 2.14-.443 4.787-1.16 6.702l-.75 1.893c.324.068.525.265.849.333.015-.167.144-.395.204-.53.282-.627.755-1.86.932-2.49.104-.371.212-.714.292-1.068.337-1.465.589-3.035.589-4.792V14.198c0-.16-.176-.173-.338-.221-1.405-.416-3.76-1.478-5.12-2.21l-1.377-.857c-.135-.099-.188-.128-.317-.238-.438-.374-.296-.16-.87-.789-1.147-1.254-.2-1.404-1.128-1.602l-9.649-2.337c-.636-.14-1.207-.302-1.836-.447-.469-.108-5.328-1.314-5.526-1.31l-11.032 2.66c-.597.136-1.217.288-1.839.445-.632.16-1.243.283-1.841.442l-2.298.556c-.575.119-.309.105-.476.618-.576 1.77-3.823 3.233-5.482 3.975-.59.264-2.165.902-2.852 1.105-.155.046-.297.058-.297.21v23.696c0 2.543.575 5.623 1.577 7.896l.387.936c.325-.068.525-.265.85-.332l-.393-.931c-.385-.986-.697-1.918-.93-2.967-.317-1.422-.535-2.9-.535-4.602V14.672z" fill="#fff" stroke="#fff" stroke-width=".177"/><path fill-rule="evenodd" clip-rule="evenodd" d="M6.351 12.803c0-.166.227-.217.366-.26l2.263-.862c.28-.127.557-.223.856-.357l1.276-.623c.15-.074.246-.109.39-.186 1.696-.914 3.83-2.194 4.486-3.95.117-.31.21-.27.806-.4 1.465-.322 17.529-4.32 17.994-4.32l6.013 1.463c3.11.81 6.705 1.606 9.926 2.397.65.16 1.318.338 2.02.491 1.02.222.298.142 1.122 1.241.544.723.547.659 1.186 1.237.202.184.44.353.676.518.923.645 2.038 1.312 3.093 1.776.947.416 1.457.697 2.54 1.095.249.09 1.682.533 1.682.74v26.192c0 2.41-.499 5.389-1.306 7.544l-.845 2.131c.365.077.591.298.956.375.018-.188.163-.445.23-.596.318-.706.85-2.095 1.05-2.804.117-.418.238-.803.328-1.201.38-1.65.662-3.417.662-5.395v-26.78c0-.18-.197-.195-.38-.249-1.58-.468-4.231-1.664-5.762-2.488l-1.55-.964c-.153-.111-.212-.144-.358-.268-.493-.42-.332-.18-.98-.888-1.29-1.412-.225-1.58-1.27-1.804l-10.86-2.63c-.716-.157-1.359-.34-2.066-.503-.528-.121-5.998-1.48-6.221-1.475L22.255 3.995c-.671.152-1.369.323-2.069.5-.712.18-1.4.32-2.073.498l-2.586.625c-.648.134-.348.119-.535.697-.65 1.992-4.304 3.639-6.172 4.474-.664.297-2.436 1.015-3.21 1.244-.175.052-.334.065-.334.235v26.674c0 2.862.646 6.33 1.774 8.889l.437 1.053c.365-.076.59-.298.955-.374l-.441-1.048c-.433-1.11-.785-2.159-1.047-3.34-.357-1.6-.603-3.263-.603-5.18V12.803z" fill="#00509E" stroke="#00509E" stroke-width=".177"/><path d="M1.066 59.599l2.022-8.972 9.127-3.993c7.469 5.455 13.493 6.118 19.962 6.103l2.885-1.134.986 1.596c10.21.273 16.638-2.643 21.792-6.212l8.182 3.742c.634 2.873 1.345 6.102 1.98 8.975-8.232 4.397-15.443 8.733-31.21 10.025l-2.228 1.95c-.706-.586-1.678-1.39-2.384-1.978C22.618 68.69 11.01 66.634 1.066 59.6v0z" stroke="#00509E"/></svg>