<svg width="40" height="40" fill="none" xmlns="http://www.w3.org/2000/svg"><g clip-path="url(#clip0)"><path d="M38.592 23.155c1.193-10.045-.574-16.387-3.76-19.255l.001-.002C29.69-1 12.32-1.725 6.167 4.118 3.403 6.977 2.43 11.172 2.323 16.365c-.106 5.195-.233 14.927 8.835 17.567h.009l-.009 4.031s-.061 1.634.982 1.962c1.193.387 1.733-.372 5.445-4.805 6.207.538 10.973-.695 11.515-.875 1.253-.42 8.345-1.358 9.492-11.09zm-20.395 9.128s-3.929 4.899-5.15 6.17c-.4.414-.839.375-.832-.445 0-.538.03-6.693.03-6.693-7.688-2.203-7.235-10.49-7.152-14.825.084-4.337.877-7.888 3.217-10.28 5.398-5.062 20.627-3.93 24.507-.283 4.743 4.205 3.055 16.085 3.065 16.49-.975 8.123-6.722 8.638-7.779 8.99-.451.15-4.643 1.228-9.906.876z" fill="#8E24AA"/><path d="M38.592 23.155c1.193-10.045-.574-16.387-3.76-19.255l.001-.002C29.69-1 12.32-1.725 6.167 4.118 3.403 6.977 2.43 11.172 2.323 16.365c-.106 5.195-.233 14.927 8.835 17.567h.009l-.009 4.031s-.061 1.634.982 1.962c1.193.387 1.733-.372 5.445-4.805 6.207.538 10.973-.695 11.515-.875 1.253-.42 8.345-1.358 9.492-11.09zm-20.395 9.128s-3.929 4.899-5.15 6.17c-.4.414-.839.375-.832-.445 0-.538.03-6.693.03-6.693-7.688-2.203-7.235-10.49-7.152-14.825.084-4.337.877-7.888 3.217-10.28 5.398-5.062 20.627-3.93 24.507-.283 4.743 4.205 3.055 16.085 3.065 16.49-.975 8.123-6.722 8.638-7.779 8.99-.451.15-4.643 1.228-9.906.876z" fill="#fff"/><path d="M20.37 7.162c-.642 0-.642 1 0 1.008 4.978.038 9.078 3.508 9.123 9.873 0 .672.984.664.975-.008h-.001C30.413 11.177 25.937 7.2 20.37 7.162z" fill="#8E24AA"/><path d="M20.37 7.162c-.642 0-.642 1 0 1.008 4.978.038 9.078 3.508 9.123 9.873 0 .672.984.664.975-.008h-.001C30.413 11.177 25.937 7.2 20.37 7.162z" fill="#fff"/><path d="M26.918 16.988c-.015.664.967.695.975.024.082-3.782-2.25-6.897-6.631-7.225-.642-.047-.709.961-.069 1.008 3.8.288 5.802 2.882 5.725 6.193z" fill="#8E24AA"/><path d="M26.918 16.988c-.015.664.967.695.975.024.082-3.782-2.25-6.897-6.631-7.225-.642-.047-.709.961-.069 1.008 3.8.288 5.802 2.882 5.725 6.193z" fill="#fff"/><path d="M25.868 21.29c-.823-.477-1.661-.18-2.008.288l-.725.939c-.368.476-1.057.413-1.057.413-5.023-1.328-6.366-6.585-6.366-6.585s-.062-.712.398-1.093l.907-.75c.453-.36.74-1.227.278-2.079-1.233-2.228-2.062-2.996-2.483-3.586-.444-.555-1.11-.68-1.804-.305h-.015c-1.441.843-3.02 2.421-2.515 4.046.862 1.714 2.445 7.175 7.492 11.302 2.372 1.952 6.125 3.952 7.718 4.413l.015.024c1.57.523 3.097-1.117 3.912-2.602v-.012c.362-.718.242-1.398-.287-1.843-.936-.913-2.35-1.922-3.46-2.57z" fill="#8E24AA"/><path d="M25.868 21.29c-.823-.477-1.661-.18-2.008.288l-.725.939c-.368.476-1.057.413-1.057.413-5.023-1.328-6.366-6.585-6.366-6.585s-.062-.712.398-1.093l.907-.75c.453-.36.74-1.227.278-2.079-1.233-2.228-2.062-2.996-2.483-3.586-.444-.555-1.11-.68-1.804-.305h-.015c-1.441.843-3.02 2.421-2.515 4.046.862 1.714 2.445 7.175 7.492 11.302 2.372 1.952 6.125 3.952 7.718 4.413l.015.024c1.57.523 3.097-1.117 3.912-2.602v-.012c.362-.718.242-1.398-.287-1.843-.936-.913-2.35-1.922-3.46-2.57z" fill="#fff"/><path d="M21.948 13.507c1.602.093 2.379.93 2.462 2.648.03.671 1.005.625.975-.047-.107-2.243-1.277-3.493-3.383-3.61-.642-.038-.702.97-.054 1.009z" fill="#8E24AA"/><path d="M21.948 13.507c1.602.093 2.379.93 2.462 2.648.03.671 1.005.625.975-.047-.107-2.243-1.277-3.493-3.383-3.61-.642-.038-.702.97-.054 1.009z" fill="#fff"/></g><defs><clipPath id="clip0"><path fill="#fff" d="M0 0h40v40H0z"/></clipPath></defs></svg>