<svg width="40" height="40" fill="none" xmlns="http://www.w3.org/2000/svg"><g clip-path="url(#clip0)"><path d="M33.192 21.713c-.647-.816-.462-1.18 0-1.91.008-.008 5.346-7.385 5.896-9.886l.004-.002c.273-.911 0-1.581-1.322-1.581h-4.373c-1.114 0-1.627.575-1.902 1.218 0 0-2.227 5.33-5.377 8.785-1.016.998-1.486 1.318-2.041 1.318-.274 0-.699-.32-.699-1.232V9.916c0-1.093-.311-1.581-1.233-1.581h-6.877c-.698 0-1.113.51-1.113.985 0 1.036 1.575 1.274 1.738 4.191v6.329c0 1.386-.251 1.641-.81 1.641-1.486 0-5.095-5.352-7.233-11.476-.432-1.189-.853-1.669-1.975-1.669H1.5C.252 8.335 0 8.91 0 9.553c0 1.137 1.487 6.789 6.913 14.255 3.617 5.097 8.71 7.859 13.344 7.859 2.785 0 3.125-.614 3.125-1.669 0-4.87-.252-5.33 1.143-5.33.647 0 1.76.32 4.36 2.779 2.972 2.915 3.46 4.22 5.123 4.22h4.374c1.246 0 1.878-.614 1.515-1.824-.832-2.544-6.452-7.78-6.705-8.13z" fill="#4B729F"/><path d="M33.192 21.713c-.647-.816-.462-1.18 0-1.91.008-.008 5.346-7.385 5.896-9.886l.004-.002c.273-.911 0-1.581-1.322-1.581h-4.373c-1.114 0-1.627.575-1.902 1.218 0 0-2.227 5.33-5.377 8.785-1.016.998-1.486 1.318-2.041 1.318-.274 0-.699-.32-.699-1.232V9.916c0-1.093-.311-1.581-1.233-1.581h-6.877c-.698 0-1.113.51-1.113.985 0 1.036 1.575 1.274 1.738 4.191v6.329c0 1.386-.251 1.641-.81 1.641-1.486 0-5.095-5.352-7.233-11.476-.432-1.189-.853-1.669-1.975-1.669H1.5C.252 8.335 0 8.91 0 9.553c0 1.137 1.487 6.789 6.913 14.255 3.617 5.097 8.71 7.859 13.344 7.859 2.785 0 3.125-.614 3.125-1.669 0-4.87-.252-5.33 1.143-5.33.647 0 1.76.32 4.36 2.779 2.972 2.915 3.46 4.22 5.123 4.22h4.374c1.246 0 1.878-.614 1.515-1.824-.832-2.544-6.452-7.78-6.705-8.13z" fill="#fff"/></g><defs><clipPath id="clip0"><path fill="#fff" d="M0 0h40v40H0z"/></clipPath></defs></svg>