<svg width="40" height="40" fill="none" xmlns="http://www.w3.org/2000/svg"><g clip-path="url(#clip0)"><path d="M19.03.023C8.466.526.13 9.323.162 19.9c.01 3.22.787 6.261 2.159 8.948L.215 39.072a.772.772 0 00.934.907l10.018-2.374a19.745 19.745 0 008.525 2.07c10.797.164 19.8-8.409 20.136-19.202C40.19 8.903 30.64-.53 19.03.023zm11.954 30.8A15.432 15.432 0 0120 35.371a15.37 15.37 0 01-6.913-1.62l-1.396-.695-6.142 1.455 1.293-6.276-.687-1.346a15.36 15.36 0 01-1.688-7.052c0-4.149 1.615-8.05 4.55-10.984A15.561 15.561 0 0120 4.304c4.15 0 8.05 1.617 10.984 4.55a15.432 15.432 0 014.55 10.984c0 4.112-1.642 8.077-4.55 10.984z" fill="#7AD06D"/><path d="M19.03.023C8.466.526.13 9.323.162 19.9c.01 3.22.787 6.261 2.159 8.948L.215 39.072a.772.772 0 00.934.907l10.018-2.374a19.745 19.745 0 008.525 2.07c10.797.164 19.8-8.409 20.136-19.202C40.19 8.903 30.64-.53 19.03.023zm11.954 30.8A15.432 15.432 0 0120 35.371a15.37 15.37 0 01-6.913-1.62l-1.396-.695-6.142 1.455 1.293-6.276-.687-1.346a15.36 15.36 0 01-1.688-7.052c0-4.149 1.615-8.05 4.55-10.984A15.561 15.561 0 0120 4.304c4.15 0 8.05 1.617 10.984 4.55a15.432 15.432 0 014.55 10.984c0 4.112-1.642 8.077-4.55 10.984z" fill="#fff"/><path d="M29.628 24.14l-3.843-1.103a1.432 1.432 0 00-1.417.373l-.94.958a1.4 1.4 0 01-1.522.32c-1.817-.735-5.641-4.135-6.618-5.835A1.4 1.4 0 0115.4 17.3l.82-1.061a1.43 1.43 0 00.177-1.455l-1.617-3.657a1.433 1.433 0 00-2.237-.512c-1.073.907-2.345 2.285-2.5 3.813-.273 2.692.882 6.086 5.248 10.161 5.045 4.708 9.084 5.33 11.714 4.693 1.492-.361 2.684-1.81 3.437-2.996a1.433 1.433 0 00-.813-2.147z" fill="#7AD06D"/><path d="M29.628 24.14l-3.843-1.103a1.432 1.432 0 00-1.417.373l-.94.958a1.4 1.4 0 01-1.522.32c-1.817-.735-5.641-4.135-6.618-5.835A1.4 1.4 0 0115.4 17.3l.82-1.061a1.43 1.43 0 00.177-1.455l-1.617-3.657a1.433 1.433 0 00-2.237-.512c-1.073.907-2.345 2.285-2.5 3.813-.273 2.692.882 6.086 5.248 10.161 5.045 4.708 9.084 5.33 11.714 4.693 1.492-.361 2.684-1.81 3.437-2.996a1.433 1.433 0 00-.813-2.147z" fill="#fff"/></g><defs><clipPath id="clip0"><path fill="#fff" d="M0 0h40v40H0z"/></clipPath></defs></svg>