<svg width="25" height="25" viewBox="0 0 25 25" fill="none" xmlns="http://www.w3.org/2000/svg">
<g clip-path="url(#clip0)">
<path d="M19.7579 15.4866C19.2461 14.9537 18.6287 14.6688 17.9745 14.6688C17.3255 14.6688 16.7028 14.9484 16.1699 15.4813L14.5026 17.1434C14.3654 17.0695 14.2282 17.0009 14.0963 16.9323C13.9063 16.8374 13.7269 16.7477 13.5739 16.6527C12.0121 15.6607 10.5927 14.368 9.23143 12.6954C8.57187 11.8617 8.12865 11.1599 7.80679 10.4476C8.23946 10.0519 8.64047 9.64033 9.03092 9.2446C9.17866 9.09686 9.3264 8.94385 9.47414 8.79611C10.5822 7.68806 10.5822 6.25287 9.47414 5.14482L8.03368 3.70436C7.87011 3.54079 7.70126 3.37195 7.54297 3.2031C7.22639 2.87596 6.89397 2.53827 6.551 2.22169C6.03919 1.71515 5.42713 1.44605 4.7834 1.44605C4.13968 1.44605 3.51706 1.71515 2.98942 2.22169C2.98414 2.22696 2.98414 2.22696 2.97887 2.23224L1.18488 4.04205C0.509502 4.71743 0.124323 5.54056 0.0399002 6.49559C-0.0867339 8.0363 0.367038 9.47149 0.715282 10.4107C1.57006 12.7165 2.84696 14.8534 4.75174 17.1434C7.06282 19.903 9.84349 22.0821 13.0199 23.6176C14.2335 24.1927 15.8533 24.8734 17.6631 24.9894C17.774 24.9947 17.89 25 17.9956 25C19.2144 25 20.238 24.5621 21.0401 23.6914C21.0453 23.6809 21.0559 23.6756 21.0612 23.6651C21.3355 23.3326 21.6521 23.0319 21.9845 22.71C22.2114 22.4937 22.4436 22.2668 22.6705 22.0294C23.1928 21.4859 23.4672 20.8527 23.4672 20.2037C23.4672 19.5495 23.1876 18.9216 22.6546 18.3939L19.7579 15.4866ZM21.6468 21.0427C21.6416 21.0427 21.6416 21.048 21.6468 21.0427C21.4411 21.2643 21.23 21.4648 21.0031 21.6864C20.6602 22.0135 20.3119 22.3565 19.9848 22.7417C19.4519 23.3115 18.824 23.5806 18.0008 23.5806C17.9217 23.5806 17.8373 23.5806 17.7581 23.5754C16.191 23.4751 14.7347 22.863 13.6425 22.3407C10.6561 20.8949 8.03368 18.8424 5.85452 16.2411C4.05526 14.0725 2.85223 12.0675 2.05549 9.91471C1.56479 8.60088 1.38539 7.57725 1.46453 6.61167C1.5173 5.99433 1.75474 5.48251 2.19268 5.04457L3.99194 3.24531C4.25048 3.0026 4.52486 2.87069 4.79396 2.87069C5.12637 2.87069 5.39547 3.07119 5.56431 3.24004C5.56959 3.24531 5.57487 3.25059 5.58014 3.25587C5.902 3.55662 6.20804 3.86793 6.5299 4.20034C6.69347 4.36919 6.86231 4.53804 7.03116 4.71216L8.47162 6.15262C9.03092 6.71192 9.03092 7.22901 8.47162 7.78831C8.3186 7.94133 8.17087 8.09434 8.01785 8.24208C7.57463 8.69585 7.15252 9.11797 6.69347 9.52953C6.68291 9.54008 6.67236 9.54536 6.66709 9.55591C6.21331 10.0097 6.29774 10.4529 6.39271 10.7537C6.39799 10.7695 6.40326 10.7853 6.40854 10.8011C6.78317 11.7087 7.31081 12.5635 8.11282 13.5818L8.1181 13.5871C9.57439 15.3811 11.1098 16.7793 12.8036 17.8504C13.0199 17.9876 13.2415 18.0984 13.4526 18.204C13.6425 18.2989 13.8219 18.3886 13.9749 18.4836C13.996 18.4942 14.0171 18.51 14.0382 18.5206C14.2176 18.6103 14.3865 18.6525 14.5606 18.6525C14.9986 18.6525 15.2729 18.3781 15.3626 18.2884L17.1672 16.4839C17.3466 16.3045 17.6315 16.0881 17.9639 16.0881C18.291 16.0881 18.5601 16.2939 18.7237 16.4733C18.729 16.4786 18.729 16.4786 18.7343 16.4839L21.6416 19.3912C22.185 19.9294 22.185 20.4834 21.6468 21.0427Z" fill="#FFB942"/>
<path d="M13.5106 5.94684C14.8931 6.17901 16.1489 6.83328 17.1514 7.8358C18.1539 8.83832 18.8029 10.0941 19.0403 11.4765C19.0984 11.8248 19.3991 12.0675 19.7421 12.0675C19.7843 12.0675 19.8213 12.0622 19.8635 12.0569C20.2539 11.9936 20.5125 11.6243 20.4492 11.2338C20.1642 9.56119 19.3728 8.03631 18.1645 6.82801C16.9562 5.61971 15.4313 4.82824 13.7586 4.54332C13.3682 4.48 13.0041 4.73854 12.9355 5.12372C12.8669 5.5089 13.1202 5.88353 13.5106 5.94684Z" fill="#FFB942"/>
<path d="M24.9709 11.028C24.5013 8.27375 23.2033 5.76745 21.2088 3.77296C19.2143 1.77847 16.708 0.480474 13.9537 0.010873C13.5685 -0.0577205 13.2045 0.206101 13.1359 0.591279C13.0726 0.981735 13.3311 1.34581 13.7216 1.4144C16.1804 1.83124 18.4228 2.99733 20.2063 4.77548C21.9897 6.55891 23.1505 8.80139 23.5674 11.2602C23.6254 11.6084 23.9262 11.8512 24.2691 11.8512C24.3113 11.8512 24.3483 11.8459 24.3905 11.8406C24.7757 11.7826 25.0395 11.4132 24.9709 11.028Z" fill="#FFB942"/>
</g>
<defs>
<clipPath id="clip0">
<rect width="25" height="25" fill="white"/>
</clipPath>
</defs>
</svg>
