<svg width="40" height="40" viewBox="0 0 40 40" fill="none" xmlns="http://www.w3.org/2000/svg">
<g clip-path="url(#clip0)">
<path d="M38.5917 23.155C39.785 13.11 38.0183 6.76837 34.8317 3.90004L34.8333 3.89837C29.69 -0.999959 12.32 -1.72496 6.16668 4.11837C3.40334 6.97671 2.43001 11.1717 2.32334 16.365C2.21668 21.56 2.09001 31.2917 11.1583 33.9317H11.1667L11.1583 37.9634C11.1583 37.9634 11.0967 39.5967 12.14 39.925C13.3333 40.3117 13.8733 39.5534 17.585 35.12C23.7917 35.6584 28.5583 34.425 29.1 34.245C30.3533 33.825 37.445 32.8867 38.5917 23.155ZM18.1967 32.2834C18.1967 32.2834 14.2683 37.1817 13.0467 38.4534C12.6467 38.8667 12.2083 38.8284 12.215 38.0084C12.215 37.47 12.245 31.315 12.245 31.315C4.55668 29.1117 5.01001 20.825 5.09334 16.49C5.17668 12.1534 5.97001 8.60171 8.31001 6.21004C13.7083 1.14837 28.9367 2.28004 32.8167 5.92671C37.56 10.1317 35.8717 22.0117 35.8817 22.4167C34.9067 30.54 29.16 31.055 28.1033 31.4067C27.6517 31.5567 23.46 32.635 18.1967 32.2834Z" fill="#8E24AA"/>
<path d="M38.5917 23.155C39.785 13.11 38.0183 6.76837 34.8317 3.90004L34.8333 3.89837C29.69 -0.999959 12.32 -1.72496 6.16668 4.11837C3.40334 6.97671 2.43001 11.1717 2.32334 16.365C2.21668 21.56 2.09001 31.2917 11.1583 33.9317H11.1667L11.1583 37.9634C11.1583 37.9634 11.0967 39.5967 12.14 39.925C13.3333 40.3117 13.8733 39.5534 17.585 35.12C23.7917 35.6584 28.5583 34.425 29.1 34.245C30.3533 33.825 37.445 32.8867 38.5917 23.155ZM18.1967 32.2834C18.1967 32.2834 14.2683 37.1817 13.0467 38.4534C12.6467 38.8667 12.2083 38.8284 12.215 38.0084C12.215 37.47 12.245 31.315 12.245 31.315C4.55668 29.1117 5.01001 20.825 5.09334 16.49C5.17668 12.1534 5.97001 8.60171 8.31001 6.21004C13.7083 1.14837 28.9367 2.28004 32.8167 5.92671C37.56 10.1317 35.8717 22.0117 35.8817 22.4167C34.9067 30.54 29.16 31.055 28.1033 31.4067C27.6517 31.5567 23.46 32.635 18.1967 32.2834Z" fill="white"/>
<path d="M20.37 7.16162C19.7284 7.16162 19.7284 8.16162 20.37 8.16995C25.3484 8.20829 29.4484 11.6783 29.4934 18.0433C29.4934 18.715 30.4767 18.7066 30.4684 18.035H30.4667C30.4134 11.1766 25.9367 7.19995 20.37 7.16162Z" fill="#8E24AA"/>
<path d="M20.37 7.16162C19.7284 7.16162 19.7284 8.16162 20.37 8.16995C25.3484 8.20829 29.4484 11.6783 29.4934 18.0433C29.4934 18.715 30.4767 18.7066 30.4684 18.035H30.4667C30.4134 11.1766 25.9367 7.19995 20.37 7.16162Z" fill="white"/>
<path d="M26.9183 16.9884C26.9033 17.6517 27.885 17.6834 27.8933 17.0117C27.975 13.2301 25.6433 10.1151 21.2617 9.78673C20.62 9.74006 20.5533 10.7484 21.1933 10.7951C24.9933 11.0834 26.995 13.6767 26.9183 16.9884Z" fill="#8E24AA"/>
<path d="M26.9183 16.9884C26.9033 17.6517 27.885 17.6834 27.8933 17.0117C27.975 13.2301 25.6433 10.1151 21.2617 9.78673C20.62 9.74006 20.5533 10.7484 21.1933 10.7951C24.9933 11.0834 26.995 13.6767 26.9183 16.9884Z" fill="white"/>
<path d="M25.8683 21.29C25.0449 20.8133 24.2066 21.11 23.8599 21.5783L23.1349 22.5167C22.7666 22.9933 22.0783 22.93 22.0783 22.93C17.0549 21.6017 15.7116 16.345 15.7116 16.345C15.7116 16.345 15.6499 15.6333 16.1099 15.2517L17.0166 14.5017C17.4699 14.1417 17.7566 13.275 17.2949 12.4233C16.0616 10.195 15.2333 9.42668 14.8116 8.83668C14.3683 8.28168 13.7016 8.15668 13.0083 8.53168H12.9933C11.5516 9.37501 9.97328 10.9533 10.4783 12.5783C11.3399 14.2917 12.9233 19.7533 17.9699 23.88C20.3416 25.8317 24.0949 27.8317 25.6883 28.2933L25.7033 28.3167C27.2733 28.84 28.7999 27.2 29.6149 25.715V25.7033C29.9766 24.985 29.8566 24.305 29.3283 23.86C28.3916 22.9467 26.9783 21.9383 25.8683 21.29Z" fill="#8E24AA"/>
<path d="M25.8683 21.29C25.0449 20.8133 24.2066 21.11 23.8599 21.5783L23.1349 22.5167C22.7666 22.9933 22.0783 22.93 22.0783 22.93C17.0549 21.6017 15.7116 16.345 15.7116 16.345C15.7116 16.345 15.6499 15.6333 16.1099 15.2517L17.0166 14.5017C17.4699 14.1417 17.7566 13.275 17.2949 12.4233C16.0616 10.195 15.2333 9.42668 14.8116 8.83668C14.3683 8.28168 13.7016 8.15668 13.0083 8.53168H12.9933C11.5516 9.37501 9.97328 10.9533 10.4783 12.5783C11.3399 14.2917 12.9233 19.7533 17.9699 23.88C20.3416 25.8317 24.0949 27.8317 25.6883 28.2933L25.7033 28.3167C27.2733 28.84 28.7999 27.2 29.6149 25.715V25.7033C29.9766 24.985 29.8566 24.305 29.3283 23.86C28.3916 22.9467 26.9783 21.9383 25.8683 21.29Z" fill="white"/>
<path d="M21.9482 13.5065C23.5499 13.5998 24.3266 14.4365 24.4099 16.1548C24.4399 16.8265 25.4149 16.7798 25.3849 16.1081C25.2782 13.8648 24.1082 12.6148 22.0016 12.4981C21.3599 12.4598 21.2999 13.4681 21.9482 13.5065Z" fill="#8E24AA"/>
<path d="M21.9482 13.5065C23.5499 13.5998 24.3266 14.4365 24.4099 16.1548C24.4399 16.8265 25.4149 16.7798 25.3849 16.1081C25.2782 13.8648 24.1082 12.6148 22.0016 12.4981C21.3599 12.4598 21.2999 13.4681 21.9482 13.5065Z" fill="white"/>
</g>
<defs>
<clipPath id="clip0">
<rect width="40" height="40" fill="white"/>
</clipPath>
</defs>
</svg>
