<svg width="40" height="40" viewBox="0 0 40 40" fill="none" xmlns="http://www.w3.org/2000/svg">
<g clip-path="url(#clip0)">
<path d="M19.0302 0.0231325C8.46623 0.526128 0.129788 9.32386 0.161835 19.8998C0.171593 23.1209 0.949236 26.1613 2.32104 28.8477L0.214832 39.0715C0.100898 39.6245 0.599684 40.1088 1.14908 39.9787L11.1672 37.6052C13.741 38.8872 16.6319 39.6278 19.6915 39.6744C30.4889 39.8394 39.492 31.266 39.8285 20.4726C40.1893 8.90285 30.6404 -0.529799 19.0302 0.0231325ZM30.9839 30.8223C28.0501 33.7562 24.1492 35.3719 20.0001 35.3719C17.5707 35.3719 15.2447 34.8268 13.0867 33.7519L11.6915 33.0569L5.54938 34.5121L6.84226 28.2359L6.15492 26.89C5.03462 24.6959 4.46657 22.3234 4.46657 19.8384C4.46657 15.6892 6.08231 11.7884 9.0162 8.85444C11.9239 5.94677 15.8883 4.30472 20.0004 4.30472C24.1495 4.30481 28.0501 5.92056 30.984 8.85435C33.9179 11.7882 35.5337 15.689 35.5338 19.8381C35.5337 23.9502 33.8916 27.9147 30.9839 30.8223Z" fill="#7AD06D"/>
<path d="M19.0302 0.0231325C8.46623 0.526128 0.129788 9.32386 0.161835 19.8998C0.171593 23.1209 0.949236 26.1613 2.32104 28.8477L0.214832 39.0715C0.100898 39.6245 0.599684 40.1088 1.14908 39.9787L11.1672 37.6052C13.741 38.8872 16.6319 39.6278 19.6915 39.6744C30.4889 39.8394 39.492 31.266 39.8285 20.4726C40.1893 8.90285 30.6404 -0.529799 19.0302 0.0231325ZM30.9839 30.8223C28.0501 33.7562 24.1492 35.3719 20.0001 35.3719C17.5707 35.3719 15.2447 34.8268 13.0867 33.7519L11.6915 33.0569L5.54938 34.5121L6.84226 28.2359L6.15492 26.89C5.03462 24.6959 4.46657 22.3234 4.46657 19.8384C4.46657 15.6892 6.08231 11.7884 9.0162 8.85444C11.9239 5.94677 15.8883 4.30472 20.0004 4.30472C24.1495 4.30481 28.0501 5.92056 30.984 8.85435C33.9179 11.7882 35.5337 15.689 35.5338 19.8381C35.5337 23.9502 33.8916 27.9147 30.9839 30.8223Z" fill="white"/>
<path d="M29.628 24.1402L25.7853 23.0368C25.2801 22.8918 24.7361 23.0351 24.368 23.4102L23.4283 24.3676C23.032 24.7713 22.4308 24.901 21.9064 24.6888C20.0886 23.9532 16.2648 20.5533 15.2882 18.8527C15.0065 18.3621 15.0531 17.7488 15.399 17.3012L16.2194 16.2399C16.5408 15.824 16.6087 15.2655 16.3961 14.7848L14.7794 11.1283C14.3922 10.2525 13.273 9.99757 12.5418 10.6159C11.4694 11.523 10.1969 12.9014 10.0422 14.4285C9.76943 17.1208 10.9241 20.5147 15.2904 24.59C20.3347 29.298 24.3742 29.92 27.0042 29.2829C28.496 28.9216 29.6882 27.4731 30.4406 26.287C30.9535 25.4784 30.5485 24.4045 29.628 24.1402Z" fill="#7AD06D"/>
<path d="M29.628 24.1402L25.7853 23.0368C25.2801 22.8918 24.7361 23.0351 24.368 23.4102L23.4283 24.3676C23.032 24.7713 22.4308 24.901 21.9064 24.6888C20.0886 23.9532 16.2648 20.5533 15.2882 18.8527C15.0065 18.3621 15.0531 17.7488 15.399 17.3012L16.2194 16.2399C16.5408 15.824 16.6087 15.2655 16.3961 14.7848L14.7794 11.1283C14.3922 10.2525 13.273 9.99757 12.5418 10.6159C11.4694 11.523 10.1969 12.9014 10.0422 14.4285C9.76943 17.1208 10.9241 20.5147 15.2904 24.59C20.3347 29.298 24.3742 29.92 27.0042 29.2829C28.496 28.9216 29.6882 27.4731 30.4406 26.287C30.9535 25.4784 30.5485 24.4045 29.628 24.1402Z" fill="white"/>
</g>
<defs>
<clipPath id="clip0">
<rect width="40" height="40" fill="white"/>
</clipPath>
</defs>
</svg>
