<svg width="69" height="73" viewBox="0 0 69 73" fill="none" xmlns="http://www.w3.org/2000/svg">
<path fill-rule="evenodd" clip-rule="evenodd" d="M7.01937 13.0451L16.579 6.77726L34.9913 1.56963L53.262 6.34187L57.0742 9.56982L63.567 12.5782L63.5419 24.2413L63.3065 41.4503L61.7253 48.2501L66.0207 50.7292L67.5969 57.8768L68.0001 59.7041L65.012 61.3071L57.1286 65.129L47.8482 68.0824L37.8483 69.6363L34.563 71.6795L32.2675 69.8227L23.0976 68.398L11.599 65.3243L1.22119 59.709L2.37666 53.7789L2.78484 50.5883L9.18411 47.9513L10.3206 47.4481L9.06794 47.6753L8.0021 47.4471L6.8009 40.7473L7.01937 13.0451Z" fill="#00509E" stroke="#00509E" stroke-width="0.125"/>
<path fill-rule="evenodd" clip-rule="evenodd" d="M33.5016 21.3336C33.4814 21.55 33.4696 21.7679 33.438 21.9833C33.4274 22.0551 33.4155 22.128 33.408 22.2001C33.4045 22.2336 33.4022 22.2673 33.408 22.3007C33.4131 22.3295 33.4235 22.3589 33.4323 22.387C33.4495 22.4427 33.4644 22.4985 33.4776 22.5551C33.606 22.6411 33.6831 22.8284 33.6789 22.9698L33.6789 22.9704L33.6784 22.9715L33.6778 22.9719C33.149 23.4145 32.211 23.6476 31.5191 23.7912C31.089 23.8805 30.6552 23.9527 30.2219 24.028C29.4806 24.1567 28.736 24.2674 27.9879 24.3588C27.3028 24.4425 26.6159 24.5099 25.9273 24.5665C24.5483 24.6797 23.1645 24.754 21.7838 24.8512C21.2059 24.892 20.6255 24.9186 20.0459 24.9308C19.5038 24.9423 18.958 24.9418 18.4163 24.9165C18.2062 24.9067 17.9973 24.9104 17.7885 24.9351C17.6261 24.9544 17.4696 24.9864 17.3109 25.0218C17.1684 25.0536 17.027 25.0859 16.8825 25.1097C16.7042 25.1391 16.5259 25.1552 16.3447 25.16C16.1659 25.1648 15.9478 25.18 15.7732 25.1442C15.6322 25.1153 15.5098 25.0515 15.3914 24.9792C14.9515 24.7106 14.6863 24.0938 14.5456 23.6484C14.5274 23.5908 14.5134 23.5341 14.5008 23.4754C14.4942 23.4451 14.4878 23.4102 14.4726 23.3823C14.4496 23.3404 14.3992 23.307 14.3581 23.28C14.2503 23.2092 14.1359 23.1427 14.0257 23.0744C13.8834 22.9862 13.7315 22.9039 13.5838 22.823C13.3711 22.7066 13.1568 22.5924 12.9419 22.4793C12.7168 22.3608 12.4909 22.2434 12.2638 22.1279C12.1137 22.0516 11.961 21.9728 11.8072 21.9028C11.6148 21.8153 11.5273 21.8622 11.326 21.8825C11.2286 21.8923 11.1264 21.8935 11.0285 21.8928C10.9321 21.8922 10.8348 21.8891 10.7387 21.8824C10.5234 21.8675 10.476 21.8248 10.4108 21.6446C10.3725 21.5389 10.3482 21.426 10.3285 21.3164C10.3093 21.21 10.2947 21.1031 10.2792 20.9962C10.2679 20.9181 10.2571 20.8325 10.2358 20.7563C10.2088 20.6597 10.2041 20.5843 10.2057 20.4862C10.2068 20.4153 10.2043 20.3538 10.1885 20.2837C10.1686 20.1956 10.1206 20.1024 10.0857 20.0175C10.0688 19.9763 10.0529 19.9344 10.0412 19.8917C9.97225 19.6412 9.93576 19.4141 9.94606 19.1562C9.95005 19.0559 9.95943 18.9557 9.96762 18.8557C9.97766 18.7327 9.98557 18.6102 9.98856 18.4869C9.99672 18.1517 9.88279 17.8488 10.009 17.5163C10.0984 17.2807 10.2296 17.0847 10.4284 16.911C10.4928 16.8547 10.561 16.8043 10.6287 16.7515C10.6747 16.7156 10.7291 16.6723 10.7597 16.6247C10.8178 16.5345 10.9042 16.3668 10.9974 16.3063C11.0189 16.2463 11.0619 16.1786 11.097 16.1242C11.149 16.0434 11.2052 15.9643 11.262 15.8861C11.3552 15.7579 11.4536 15.6323 11.5457 15.5037C11.6377 15.3753 11.7449 15.258 11.8445 15.1346C11.9966 14.9461 12.1568 14.7517 12.3525 14.5972C12.4307 14.5356 12.5141 14.4796 12.5986 14.4252C12.7134 14.3513 12.8298 14.2795 12.9451 14.2062C13.2659 14.0023 13.6206 13.8906 14.0114 13.8543C14.0581 13.8412 14.1367 13.836 14.1858 13.8316C14.2975 13.8214 14.4099 13.8139 14.522 13.8069C14.8358 13.7872 15.1503 13.7724 15.4645 13.7589C15.7618 13.7461 16.0594 13.7347 16.3569 13.7256C16.4687 13.7223 16.5804 13.7191 16.6922 13.717C16.7593 13.7157 16.8275 13.7141 16.8945 13.7156C17.3913 13.7268 17.8882 13.7352 18.3849 13.7496C18.6242 13.7566 18.8659 13.7756 19.1054 13.7877C19.2556 13.7954 19.4065 13.802 19.557 13.8033C19.6599 13.8042 19.784 13.8049 19.8851 13.7879L19.8858 13.7878L19.887 13.788L19.8876 13.7883C20.0279 13.8698 20.8357 13.8722 21.0623 13.898C21.5732 13.9563 22.1121 14.0191 22.5978 14.1783C23.0655 14.3316 23.4952 14.5788 23.9071 14.8255C24.4223 15.1341 24.9244 15.46 25.4342 15.7757C25.5053 15.8197 25.5935 15.8738 25.6741 15.9023C25.7142 15.9165 25.7527 15.9244 25.795 15.9134C25.8198 15.907 25.8439 15.8954 25.8673 15.8858C25.901 15.872 25.9337 15.8617 25.9701 15.8549C26.1078 15.8293 26.2809 15.855 26.4159 15.8815C26.5905 15.9158 26.7051 16.007 26.7562 16.1599C26.7808 16.2334 26.7904 16.3066 26.7683 16.3815C26.7528 16.4341 26.7238 16.4781 26.7031 16.5282C26.6887 16.5633 26.6816 16.5967 26.685 16.6341L28.8082 17.1009C29.074 17.171 29.341 17.2339 29.6113 17.2888C29.8047 17.3281 29.9992 17.3628 30.1924 17.4026C30.4208 17.4497 30.6405 17.5061 30.8613 17.5767C31.1946 17.6833 31.5216 17.8136 31.8418 17.9481C32.2798 18.1322 33.2018 18.5472 33.3188 19.0004C33.3566 19.147 33.3458 19.3333 33.3338 19.4831C33.3236 19.6108 33.3077 19.738 33.2968 19.8656C33.2914 19.9294 33.2795 20.0543 33.3011 20.1145C33.35 20.2021 33.3762 20.1891 33.474 20.2219C33.5427 20.2449 33.6071 20.2658 33.67 20.3002L33.6706 20.3006L33.6715 20.3017V20.3024C33.6849 20.3984 33.6856 20.5015 33.6839 20.5982C33.6823 20.6935 33.6775 20.7899 33.6677 20.8847C33.6556 21.0014 33.6539 21.2164 33.5544 21.3017C33.5387 21.3151 33.521 21.3257 33.5014 21.3336L33.5016 21.3336ZM33.3148 21.4407C33.2434 21.5488 32.8219 21.6799 32.6833 21.7123C32.6431 21.9169 32.4681 22.8499 32.5391 22.9966C32.6516 23.0483 32.8284 22.8981 32.9122 22.8424C33.062 22.7428 33.1208 22.692 33.2043 22.5389C33.2367 22.4212 33.2807 22.3622 33.2739 22.2364C33.1883 22.3587 33.2596 22.4624 33.0984 22.5533L33.0976 22.5537L33.0957 22.5538L33.0949 22.5533C33.0714 22.5407 33.0515 22.5245 33.0358 22.5044C32.9461 22.3895 33.0138 22.1519 33.0322 22.0203C33.049 21.9005 33.0747 21.8068 33.1331 21.6984C33.1595 21.6493 33.187 21.6018 33.2104 21.5513L33.2109 21.5505L33.2124 21.5495L33.2134 21.5495C33.2369 21.5478 33.2905 21.5419 33.3109 21.5566C33.3154 21.5598 33.3184 21.5611 33.3242 21.5623C33.3306 21.5635 33.3631 21.5694 33.3667 21.5799C33.3674 21.5797 33.368 21.5796 33.3686 21.5794C33.3716 21.561 33.3916 21.4405 33.3862 21.4354C33.3775 21.4345 33.3549 21.4634 33.3149 21.4407L33.3148 21.4407ZM12.8452 15.8405L12.8464 15.8405C12.8464 15.8405 12.8464 15.8405 12.8464 15.8405L12.8479 15.8406C12.9371 15.8436 13.028 15.844 13.1169 15.8499C13.1716 15.8534 13.2276 15.8597 13.2778 15.8805C13.3566 15.913 13.4231 15.9855 13.4772 16.0442C13.5391 16.1112 13.5736 16.1795 13.5943 16.2638C13.6078 16.3185 13.6143 16.3861 13.6424 16.4359C13.6727 16.4899 13.7261 16.5183 13.788 16.5374C13.8053 16.5208 13.8201 16.5026 13.8328 16.483C13.8652 16.4329 13.883 16.3755 13.8989 16.3198C13.9173 16.2554 13.9339 16.1918 13.9604 16.1295C13.9776 16.0891 13.9921 16.0479 14.0042 16.0061C14.072 15.7731 14.0658 15.5246 14.0502 15.2862C14.0314 15.0009 13.9896 14.6848 14.0518 14.4029C14.024 14.3645 14.0059 14.3268 13.9904 14.2833C13.9811 14.257 13.972 14.2241 13.9537 14.2017C13.9246 14.1661 13.8701 14.1571 13.8243 14.1525C13.7107 14.1411 13.5731 14.1506 13.459 14.1576C13.4361 14.1861 13.4141 14.228 13.3968 14.2594C13.3618 14.3226 13.3288 14.3869 13.2963 14.4512C13.2073 14.6274 13.1224 14.8058 13.04 14.9845C12.9578 15.163 12.8772 15.343 12.8034 15.5243C12.7764 15.5906 12.75 15.6575 12.7271 15.7249C12.7167 15.7554 12.6995 15.8047 12.6975 15.8374L12.8452 15.8405ZM11.5504 16.7989V16.7989L11.5516 16.7992L11.553 16.7994L11.5531 16.7995L11.7569 16.8442C11.7488 16.8278 11.7312 16.811 11.7193 16.7975C11.6942 16.769 11.6762 16.7408 11.6625 16.7064C11.6057 16.5651 11.6802 16.2902 11.7689 16.1667C11.9366 15.9332 12.1226 15.8988 12.4127 15.8409C12.4273 15.8243 12.4713 15.7255 12.4809 15.7051C12.5239 15.6134 12.5657 15.5213 12.6075 15.4292C12.6449 15.3466 12.6822 15.2641 12.7199 15.1816C12.7433 15.1306 12.7664 15.0777 12.7922 15.0277C12.8558 14.9041 12.9277 14.7828 12.996 14.6612C13.0707 14.5283 13.158 14.3763 13.2075 14.234C12.9798 14.3054 12.7016 14.5262 12.513 14.6615C12.2546 14.8469 12.2007 15.0141 12.0709 15.2764C11.9409 15.5394 11.8123 15.8026 11.7008 16.0724C11.6062 16.3017 11.5185 16.5443 11.471 16.7854L11.5504 16.7989ZM11.2276 16.7529C11.2491 16.7501 11.2887 16.7504 11.3064 16.7435C11.3481 16.7273 11.3777 16.613 11.3885 16.5787C11.5302 16.1269 11.7626 15.7041 11.9249 15.2597C11.8451 15.3478 11.7706 15.4439 11.7003 15.5378C11.6373 15.6219 11.5757 15.7079 11.519 15.7955L11.185 16.3993C11.1836 16.5145 11.128 16.5874 11.0913 16.6927C11.1168 16.7126 11.1174 16.714 11.1523 16.7297C11.188 16.7458 11.1893 16.743 11.2276 16.7529ZM15.0144 16.8658C15.4489 16.8439 15.8784 16.7736 16.3116 16.7393C16.892 16.6934 17.475 16.6646 18.0571 16.6422C18.6976 16.6176 19.3386 16.6014 19.9795 16.5882C21.099 16.5651 22.219 16.5533 23.3382 16.5245C23.8245 16.512 24.3102 16.5037 24.7967 16.5156C25.2598 16.527 25.7212 16.5698 26.1845 16.5768L24.1011 15.205C23.7393 14.9876 23.3742 14.7747 23.0122 14.5577C22.8433 14.4565 22.6576 14.3424 22.465 14.2814C22.3562 14.2469 22.2447 14.2288 22.1304 14.2165C21.9628 14.1984 21.7912 14.1907 21.6227 14.1821C20.6981 14.1352 19.7738 14.0844 18.8482 14.0549C18.0142 14.0284 17.1768 14.018 16.3428 14.0484C15.7745 14.0691 15.2082 14.1186 14.64 14.1406C14.6556 14.4945 14.677 14.8487 14.7063 15.2019C14.7353 15.5503 14.7695 15.9085 14.8339 16.253C14.8568 16.3755 14.8901 16.492 14.9298 16.6108C14.9581 16.6958 14.9879 16.7803 15.0144 16.8658ZM14.907 17.0201C14.9158 17.0284 14.9251 17.0363 14.9348 17.0437C15.0355 17.1202 15.1807 17.1388 15.3082 17.1435C15.4964 17.1504 15.6969 17.1309 15.8845 17.1154C16.1528 17.0932 16.4187 17.0726 16.6883 17.0691C17.0142 17.0649 17.3375 17.0847 17.6584 17.1367C18.5125 17.2753 19.3644 17.4259 20.2037 17.6255C21.0195 17.8196 21.8107 18.0597 22.594 18.3412C22.8566 18.4356 23.1187 18.5436 23.3733 18.6542C23.5204 18.7181 23.6669 18.7843 23.8105 18.8543C23.9245 18.9099 24.0419 18.9692 24.1484 19.0358C24.2249 19.0837 24.3007 19.1325 24.378 19.1795C24.4579 19.2279 24.5451 19.2796 24.6325 19.3172C24.5038 19.1098 23.0457 18.2934 22.7576 18.1681C22.3977 18.0115 22.0451 17.8539 21.6735 17.7194C21.3723 17.6104 21.0597 17.5206 20.7475 17.4408C20.4016 17.3524 20.0516 17.2756 19.7005 17.206C19.0656 17.08 18.4235 16.9762 17.7809 16.8868C17.5587 16.8559 17.3361 16.8344 17.1114 16.8262C16.8444 16.8163 16.5788 16.8254 16.3126 16.8445C16.083 16.861 15.853 16.8807 15.6242 16.9044C15.477 16.9196 15.3289 16.9365 15.1828 16.959C15.1064 16.9708 14.9782 16.9898 14.907 17.0201ZM31.5576 18.7358C31.2272 18.1389 29.9287 17.4022 29.1848 17.2921C29.2644 17.3171 29.3494 17.3536 29.4227 17.3842C29.557 17.4404 29.6899 17.4999 29.8217 17.5606C29.958 17.6234 30.0937 17.6879 30.2276 17.7547C30.3101 17.7959 30.4059 17.8419 30.4824 17.8913C30.6389 17.9923 30.7973 18.0942 30.9443 18.2062C31.071 18.3028 31.1913 18.4077 31.3115 18.5107C31.3891 18.5772 31.4704 18.6824 31.5576 18.7358ZM10.4452 17.5282C10.3845 17.6291 10.4049 17.6561 10.4149 17.7657L10.6093 17.8183C10.6235 17.7077 10.6606 17.4362 10.4452 17.5282ZM11.5723 18.031C11.6663 18.1034 11.8081 18.1227 11.9273 18.1014C11.956 17.9483 11.9869 17.7759 11.7662 17.7434C11.5656 17.7138 11.5178 17.8939 11.5723 18.031ZM13.9346 19.6623C13.9425 19.5807 13.9784 19.4197 13.9273 19.3516C13.8963 19.3103 13.8391 19.2975 13.7867 19.2933C13.7487 19.4208 13.7235 19.6599 13.9346 19.6623ZM33.209 19.0157C33.1261 19.0414 33.0517 19.0733 32.9724 19.1059C32.8523 19.1553 32.7493 19.1823 32.6178 19.1992C32.3656 19.2315 32.112 19.2516 31.8585 19.2733L31.9231 20.3995C32.2309 20.3766 32.9276 20.2845 33.1541 20.1048C33.231 19.9153 33.2652 19.2155 33.209 19.0157ZM24.3735 20.976C24.4245 20.912 24.4668 20.8229 24.5001 20.7503C24.5486 20.6446 24.5915 20.5362 24.6326 20.428C24.6964 20.2607 24.754 20.0913 24.8186 19.9243C24.9165 19.6712 24.8742 19.6976 24.6038 19.7072C24.304 19.7178 24.0032 19.7229 23.7032 19.7278C23.286 19.7346 22.8687 19.7394 22.4515 19.7424C22.0225 19.7456 21.5933 19.7472 21.1643 19.745C20.8653 19.7435 20.5605 19.743 20.262 19.7284C19.8722 19.7094 18.5059 19.5966 18.2151 19.7534C18.0045 19.8669 17.8369 20.0881 17.75 20.2902C17.7097 20.384 17.6552 20.5875 17.7098 20.6797C17.7644 20.772 17.7561 20.7457 17.869 20.7658C18.051 20.7984 18.2393 20.8193 18.4236 20.8381C18.68 20.8642 18.9375 20.8844 19.1947 20.9022C19.8279 20.9461 20.4637 20.9753 21.0984 20.9964C21.7456 21.018 22.3949 21.0313 23.0426 21.0288C23.3029 21.0278 23.5637 21.0242 23.8237 21.0143C24.0054 21.0073 24.1932 20.9984 24.3735 20.976ZM13.7298 21.4451C13.7371 21.3706 13.7563 21.2417 13.7161 21.1752C13.6852 21.1242 13.6156 21.0904 13.56 21.0648C13.4378 21.0085 13.3081 20.9592 13.1838 20.906C12.9278 20.7963 12.6697 20.6904 12.4129 20.5822C12.2519 20.5143 12.0911 20.4459 11.9315 20.3754C11.8101 20.3218 11.6863 20.2669 11.569 20.2065C11.4502 20.1452 10.9011 19.8288 10.7994 19.8395C10.7732 19.909 10.7811 19.9866 10.8015 20.0564C10.8286 20.1491 10.846 20.1497 10.9335 20.1943C11.0569 20.2572 11.1783 20.323 11.3018 20.3858C11.4554 20.4638 11.6137 20.5375 11.7702 20.6107C12.0019 20.719 12.2347 20.8255 12.4684 20.9304C12.7332 21.0493 12.9997 21.1671 13.2688 21.2782C13.3664 21.3186 13.465 21.3585 13.5647 21.3947C13.6093 21.411 13.6812 21.4382 13.7298 21.4451H13.7298ZM31.704 19.4928C31.5456 19.4807 31.3779 19.4863 31.2194 19.4944C31.0205 19.5046 30.8216 19.5217 30.6235 19.5406C30.2879 19.5727 29.9523 19.614 29.6165 19.6423C29.504 19.6518 29.3908 19.6569 29.2786 19.667C29.212 19.6731 29.1418 19.6817 29.081 19.7083C28.9769 19.7537 28.8918 19.8633 28.8267 19.9456C28.7004 20.1052 28.4594 20.4243 28.5112 20.6282C28.5185 20.6314 28.5206 20.6327 28.5253 20.6389C28.5272 20.6415 28.5862 20.6461 28.5896 20.6464L30.1072 20.5104C30.371 20.4868 30.6362 20.4701 30.9003 20.4472C31.0744 20.4321 31.2493 20.416 31.4224 20.3941C31.4961 20.3848 31.6633 20.3654 31.7291 20.3358C31.7824 20.2161 31.7258 19.645 31.704 19.4928ZM27.6993 19.7451C26.8887 19.7927 26.0773 19.8269 25.2662 19.8675C25.186 19.8716 25.0951 19.8812 25.0289 19.9257C24.96 19.9721 24.9213 20.0546 24.8916 20.1246C24.834 20.2602 24.787 20.4025 24.7333 20.5399C24.7019 20.6203 24.665 20.6983 24.6331 20.7781C24.6226 20.8044 24.5979 20.8627 24.6176 20.889C24.6434 20.9233 24.7585 20.9135 24.7971 20.9113C24.9645 20.9015 25.1332 20.8833 25.3009 20.8713C26.0932 20.8146 26.8858 20.7609 27.6786 20.7102C27.8011 20.7024 27.9262 20.7011 28.048 20.6902C28.1246 20.6833 28.2117 20.671 28.2745 20.628C28.3952 20.5454 28.4072 20.3448 28.4133 20.2215C28.4225 20.033 28.366 19.9483 28.2335 19.8142C28.1969 19.7771 28.1542 19.7504 28.1011 19.736C27.988 19.7055 27.8183 19.7381 27.6993 19.7451ZM10.4086 19.0709C10.383 19.1305 10.369 19.2038 10.3586 19.2665C10.3423 19.3647 10.3327 19.4648 10.3258 19.5639C10.3083 19.8154 10.3076 20.0709 10.3165 20.3227C10.3252 20.5667 10.3708 21.4111 10.5475 21.5971C10.7461 21.441 10.7238 20.6186 10.7149 20.3974C10.7062 20.1834 10.6892 19.9685 10.6621 19.7558C10.6433 19.6081 10.6203 19.4418 10.5762 19.2985C10.5396 19.1795 10.5508 19.1149 10.4086 19.0709ZM11.1853 21.1991L11.1758 21.5139C11.3964 21.6411 12.9187 22.2191 13.1202 22.2063C13.0743 22.0798 12.3344 21.758 12.1854 21.6813L11.1853 21.1991ZM31.5133 21.3725C31.4486 21.3729 31.3817 21.3775 31.3172 21.3817C31.21 21.3886 31.1028 21.3968 30.9958 21.4054C30.7138 21.428 30.4319 21.4532 30.1502 21.4786C29.7207 21.5175 29.2909 21.5601 28.8611 21.5957C28.4178 21.6325 27.9751 21.6743 27.5322 21.7155C27.3273 21.7345 27.1208 21.7463 26.9154 21.7626C26.788 21.7726 26.6604 21.7838 26.5336 21.7989C26.4318 21.811 26.3255 21.8255 26.2263 21.8494C26.2095 21.9212 26.2004 22.0008 26.1913 22.0736C26.1771 22.1874 26.1654 22.3015 26.1554 22.4156C26.1453 22.5314 26.1367 22.6478 26.1323 22.7639C26.1297 22.8312 26.1248 22.9226 26.1362 22.9893C26.1502 22.9906 26.1926 22.9868 26.2041 22.986C26.2623 22.9821 26.3206 22.9775 26.3788 22.9727C26.5793 22.9563 26.7796 22.9383 26.9799 22.92C27.5782 22.8655 28.1762 22.8074 28.7736 22.7468C28.9927 22.7246 31.3343 22.4888 31.4 22.42C31.4668 22.2965 31.5175 21.5447 31.5133 21.3725H31.5133ZM32.3762 21.8119L31.6116 21.9052C31.5975 22.1022 31.5999 22.4542 31.5059 22.6241V22.6244L31.5055 22.625L31.505 22.6252C31.3021 22.7688 29.2214 22.9135 28.7999 22.9631C28.348 23.0162 27.8972 23.0764 27.4448 23.1285C27.1529 23.1622 26.8597 23.1945 26.5666 23.2188C26.4554 23.2281 26.3434 23.2364 26.2318 23.2407C26.1667 23.2431 26.0864 23.2462 26.022 23.2376L26.021 23.2374L26.0195 23.2362L26.019 23.2353C25.9827 23.1032 25.9898 22.9307 25.9948 22.7946C25.999 22.682 26.0063 22.5678 26.0034 22.4551L23.7408 22.6051C23.756 22.7851 23.7753 22.9662 23.806 23.1447C23.8286 23.2755 23.8576 23.4089 23.9026 23.5352C23.961 23.6996 24.0498 23.862 24.2196 23.9552C24.3456 24.0243 24.4966 24.0454 24.6418 24.0524C24.8412 24.062 25.0498 24.0486 25.2493 24.0394C26.2083 23.9948 27.1758 23.8892 28.1264 23.7685C29.0561 23.6505 29.9832 23.5126 30.9073 23.3638C31.0481 23.3411 31.1893 23.3218 31.3309 23.3039C31.4397 23.2901 31.5489 23.2773 31.6572 23.2609C31.7969 23.2397 31.9621 23.2102 32.0735 23.1264C32.2027 23.0291 32.2503 22.8647 32.2799 22.7223C32.3058 22.598 32.3208 22.47 32.3334 22.3442C32.3511 22.1671 32.3637 21.9894 32.376 21.8119L32.3762 21.8119ZM14.4101 22.3044C14.4342 22.628 14.4908 22.9573 14.5711 23.2733C14.6785 23.6958 14.9057 24.376 15.2904 24.6625C15.4015 24.7453 15.5416 24.8092 15.6886 24.7697C15.9509 24.6992 16.1071 24.3406 16.1722 24.1236C16.3076 23.6717 16.3315 23.1505 16.2951 22.6839C16.2483 22.0834 16.113 21.4036 15.8251 20.855C15.7035 20.6233 15.4144 20.1685 15.0677 20.1952C14.755 20.2193 14.5941 20.63 14.5263 20.853C14.387 21.3109 14.3749 21.8317 14.4101 22.3044ZM18.4421 22.5294C18.3735 22.7281 18.4369 23.2538 18.5442 23.4365C18.6646 23.6416 18.9509 23.8089 19.2019 23.8531C19.5811 23.9198 19.9748 23.9524 20.3602 23.9749C20.6944 23.9944 21.0289 24.0053 21.3637 24.0156C21.6196 24.0373 22.8349 24.0928 23.0028 23.9703C23.1615 23.8545 23.184 22.6704 22.981 22.6066L20.1975 22.5507C20.077 22.5472 19.9559 22.5396 19.8356 22.5329C19.6745 22.5238 19.5135 22.5149 19.3522 22.5078C19.1708 22.4999 18.9876 22.4935 18.806 22.4959C18.7037 22.4972 18.5393 22.4998 18.4421 22.5294ZM23.1474 23.9834C23.1578 23.9954 23.171 24.0118 23.1823 24.0196C23.2026 24.0337 23.2709 24.0442 23.296 24.0494C23.4473 24.0803 23.6143 24.1153 23.769 24.1283C23.8358 24.1339 23.8912 24.1339 23.9562 24.1191C24.0312 24.1019 24.0844 24.0906 24.1565 24.0853L23.1474 23.9834ZM33.2613 21.7126C33.2542 21.7164 33.2472 21.7179 33.2447 21.7282C33.2431 21.7353 33.2196 21.778 33.2152 21.7875C33.1922 21.837 33.1723 21.8879 33.1557 21.9394C33.1106 22.0795 33.0877 22.2305 33.1068 22.3762C33.1123 22.3351 33.126 22.2867 33.1351 22.251C33.1551 22.1731 33.1768 22.0956 33.1971 22.0178C33.2224 21.9211 33.2518 21.812 33.2613 21.7126ZM33.3453 21.9239C33.2875 22.0141 33.2798 22.106 33.28 22.2076L33.323 22.0849C33.3316 22.031 33.3398 21.978 33.3453 21.9239Z" fill="white" stroke="white" stroke-width="0.054"/>
<path fill-rule="evenodd" clip-rule="evenodd" d="M23.1399 23.9796L24.1954 24.0862C23.8474 24.1002 24.0487 24.2063 23.2955 24.0523C23.1668 24.026 23.1902 24.0343 23.1399 23.9796ZM20.1978 22.5477L22.9815 22.6036C23.1891 22.6687 23.1648 23.8561 23.0051 23.9726C22.8395 24.0935 21.6529 24.0432 21.3636 24.0186C20.6791 23.9975 19.8549 23.971 19.2015 23.856C18.9475 23.8113 18.6615 23.6424 18.5414 23.4379C18.4361 23.2586 18.3683 22.7298 18.4396 22.527C18.71 22.4431 19.8255 22.5367 20.1978 22.5477ZM14.4069 22.3047C14.3703 21.8121 14.3898 21.2909 14.5233 20.8522C14.9696 19.3853 16.1301 20.5198 16.2987 22.6837C16.3363 23.1653 16.3057 23.6907 16.1756 24.1244C16.0641 24.4964 15.771 25.0243 15.2884 24.6649C14.7671 24.2766 14.4662 23.101 14.4069 22.3047ZM32.38 21.8084C32.2682 23.4223 32.2227 23.1552 30.9084 23.3668C29.2174 23.639 26.9544 23.9633 25.2499 24.0424C24.1984 24.0912 23.8654 24.1251 23.7376 22.6023L26.0071 22.4519C26.0138 22.6891 25.9673 23.033 26.0228 23.2346C26.3592 23.2799 28.3248 23.0159 28.7997 22.9601C29.2283 22.9096 31.3045 22.7634 31.5031 22.6228C31.5941 22.4583 31.5931 22.1167 31.6086 21.9025L32.38 21.8084ZM26.2237 21.847C26.5326 21.772 27.1723 21.7459 27.5321 21.7124C27.9805 21.6708 28.4133 21.6299 28.861 21.5927C29.3537 21.5518 31.2024 21.3704 31.5168 21.3695C31.5218 21.5389 31.4672 22.3032 31.403 22.4217C31.3032 22.5263 26.2094 23.0062 26.1335 22.992C26.1033 22.8231 26.1821 22.022 26.2237 21.847ZM11.1823 21.1942L12.1872 21.6786C12.3498 21.7624 13.0907 22.083 13.1248 22.209C12.9325 22.2309 11.3715 21.6316 11.1726 21.5155L11.1823 21.1942ZM10.5473 21.6013C10.2836 21.3334 10.2396 19.4491 10.4068 19.0671C10.5467 19.1095 10.536 19.1557 10.5797 19.2977C10.7178 19.7468 10.834 21.3863 10.5473 21.6013ZM27.6993 19.7421C27.9295 19.7285 28.0994 19.6737 28.2362 19.8122C28.3501 19.9274 28.427 20.0149 28.4169 20.2216C28.3913 20.7462 28.2165 20.6789 27.679 20.7132C26.8876 20.7638 26.0963 20.8175 25.3014 20.8744C24.4478 20.9355 24.5503 20.9991 24.7303 20.5389C24.9411 19.9999 24.9226 19.8817 25.2663 19.8645C26.0802 19.8238 26.8857 19.7898 27.6993 19.7421ZM28.5085 20.6302C28.4528 20.4173 28.7193 20.0764 28.8242 19.9439C29.0707 19.6325 29.0983 19.6829 29.6164 19.6393C30.1603 19.5934 31.2007 19.4505 31.7072 19.49C31.729 19.6409 31.7858 20.2213 31.732 20.3379C31.5669 20.4138 30.3953 20.4864 30.1077 20.5134L28.59 20.6495C28.4911 20.6407 28.5409 20.6445 28.5085 20.6302ZM11.3004 20.3884C11.1632 20.3187 11.0547 20.2594 10.9321 20.1969C10.8466 20.1534 10.8264 20.1528 10.7985 20.0572C10.7731 19.9706 10.774 19.8966 10.7971 19.8368C10.8948 19.8215 11.4206 20.1264 11.5709 20.2039C11.8988 20.3728 12.7744 20.7271 13.1855 20.9033C13.7585 21.1488 13.7669 21.0957 13.733 21.4485C13.505 21.4204 11.7018 20.5925 11.3003 20.3884H11.3004ZM24.3756 20.9789C23.2915 21.1141 19.0085 20.9725 17.8686 20.7688C17.7432 20.7464 17.7599 20.7706 17.707 20.6811C17.6538 20.5912 17.7024 20.3929 17.7471 20.2891C17.8475 20.0555 18.0267 19.8515 18.2136 19.7508C18.5038 19.5943 19.8517 19.7053 20.2624 19.7254C21.0258 19.7626 23.7807 19.7334 24.6039 19.7042C24.8827 19.6942 24.9193 19.6737 24.822 19.9253C24.719 20.1917 24.5224 20.7956 24.3756 20.9789ZM31.8552 19.2705C32.1091 19.2488 32.3605 19.2291 32.6175 19.1962C32.9122 19.1584 32.9815 19.0823 33.2115 19.0118C33.2688 19.2065 33.2336 19.9199 33.1572 20.1065C32.9402 20.2796 32.2731 20.3768 31.9201 20.4027L31.8552 19.2705ZM13.9379 19.6654C13.7251 19.6653 13.7413 19.4326 13.7844 19.2901C14.0149 19.3072 13.9561 19.4649 13.9379 19.6654ZM11.5696 18.0328C11.5111 17.8869 11.5684 17.7111 11.7669 17.7404C11.9754 17.7711 11.9655 17.9167 11.9305 18.1039C11.8087 18.1263 11.6645 18.1063 11.5696 18.0328ZM10.443 17.5259C10.6424 17.44 10.6347 17.6478 10.6125 17.8222L10.4119 17.768C10.4006 17.6409 10.383 17.6252 10.443 17.5259ZM31.5663 18.7444C31.4802 18.696 31.3995 18.5902 31.3094 18.5129C30.9654 18.218 30.9034 18.1667 30.4806 17.8937C30.3097 17.7834 29.379 17.3461 29.1452 17.2837C29.8681 17.3706 31.2318 18.1215 31.5663 18.7444ZM14.9016 17.0191C15.0875 16.9364 16.0353 16.8615 16.3125 16.8415C16.8502 16.8029 17.2666 16.8122 17.7817 16.8838C18.9441 17.0455 20.5997 17.3274 21.675 17.7166C22.0794 17.863 22.3763 17.9988 22.7593 18.1654C23.0227 18.28 24.5419 19.1236 24.6401 19.3237C24.4937 19.2624 24.2859 19.1253 24.1467 19.0383C23.8116 18.8288 22.99 18.4867 22.5929 18.344C20.8535 17.7188 19.5092 17.44 17.658 17.1397C16.2688 16.9144 15.2382 17.3484 14.9016 17.0191ZM14.6367 14.1378C15.1991 14.1161 15.7665 14.0664 16.3428 14.0454C18.0572 13.9829 19.9338 14.0933 21.6231 14.1791C22.3992 14.2185 22.4812 14.2356 23.0143 14.5552C23.3962 14.7841 23.7467 14.9883 24.1032 15.2025L26.1952 16.58C25.7285 16.5735 25.264 16.5301 24.7968 16.5186C24.302 16.5065 23.8325 16.5149 23.3385 16.5276C21.2257 16.5819 18.3411 16.5819 16.3121 16.7423C15.8819 16.7764 15.4426 16.8474 15.0121 16.869C14.9451 16.652 14.8761 16.4962 14.8308 16.2535C14.7224 15.6733 14.6624 14.7197 14.6367 14.1378ZM14.0123 13.8573C13.9549 13.9755 14.0049 13.8993 13.937 13.975L13.9804 13.9825C14.1138 14.0317 14.033 13.9143 14.0449 14.0425C14.1892 14.056 14.0487 13.9512 14.1037 14.0754L14.0772 14.1582C14.0255 14.0952 14.076 14.1322 14.008 14.0855C13.935 14.0355 14.0193 14.0562 13.9153 14.0522C13.9682 14.1283 14.0913 14.1232 14.1061 14.2345L14.0558 14.4022C13.9385 14.93 14.1942 15.5886 13.9639 16.1305C13.8963 16.2896 13.8972 16.4387 13.7893 16.5409C13.5184 16.4585 13.6849 16.2737 13.4749 16.0461C13.2796 15.8343 13.2523 15.8574 12.8465 15.8435C12.8059 15.9683 12.8683 15.9122 12.6376 15.992C12.6305 15.9944 12.6219 15.9979 12.6147 16.0002C12.4614 16.0494 12.5094 16.0271 12.4029 15.9884C12.3662 15.9751 12.4733 15.97 12.3287 15.9705C12.4003 15.9068 12.3656 15.8723 12.4763 15.9351C12.5448 15.974 12.4449 15.9685 12.5768 15.9609L12.4149 15.8436C12.0737 15.9117 11.9257 15.9544 11.7721 16.1683C11.6856 16.2887 11.6089 16.5632 11.666 16.7054C11.7 16.7901 11.75 16.8136 11.7627 16.8485L11.5511 16.8021C11.5218 16.8601 11.5794 16.9281 11.3656 16.8811C11.2532 16.8564 11.2633 16.8295 11.2276 16.756C11.1674 16.7404 11.1979 16.7536 11.151 16.7325C11.1019 16.7104 11.1129 16.7134 11.0876 16.6937C11.128 16.577 11.1807 16.5174 11.1819 16.3986C11.0787 16.3704 11.1239 16.4273 11.0966 16.2842L11.0007 16.3078C10.9105 16.3651 10.8276 16.5258 10.763 16.6262C10.6536 16.7962 10.2375 16.9244 10.0125 17.5172C9.88598 17.8505 10.0003 18.156 9.99224 18.487C9.97792 19.0752 9.87373 19.2695 10.0448 19.891C10.0823 20.0274 10.1665 20.1695 10.1921 20.2831C10.234 20.4688 10.1795 20.5418 10.2394 20.7555C10.2883 20.9303 10.3107 21.3576 10.4143 21.6437C10.478 21.8195 10.5219 21.8643 10.7393 21.8794C10.9039 21.8908 11.164 21.8958 11.3259 21.8795C11.5541 21.8565 11.6191 21.8137 11.809 21.9001C12.1604 22.06 13.6483 22.8366 14.0279 23.0719C14.5994 23.4261 14.4359 23.2889 14.5492 23.6476C14.72 24.1883 14.9952 24.7335 15.3936 24.9767C15.7354 25.1854 15.8777 25.1694 16.3449 25.157C17.2255 25.1336 17.4588 24.8687 18.4168 24.9135C19.4665 24.9626 20.755 24.9207 21.7838 24.8482C24.8974 24.6289 27.1059 24.5661 30.2215 24.025C31.3997 23.8204 32.9435 23.5826 33.6758 22.9697C33.6806 22.8077 33.5868 22.6312 33.4748 22.5569C33.3047 22.5162 33.3986 22.5228 33.3327 22.5314C33.3302 22.5318 33.3765 22.5912 33.2077 22.5399C33.1202 22.7004 33.0596 22.7482 32.9144 22.8448C32.8257 22.9038 32.6508 23.0528 32.5367 22.9988C32.4651 22.8563 32.6359 21.9368 32.6806 21.7099C32.8603 21.6683 33.2539 21.5356 33.3139 21.4364L33.4986 21.3316C33.643 21.2748 33.6434 21.0904 33.6647 20.8845C33.6812 20.7243 33.6904 20.4596 33.6684 20.3028C33.6082 20.2698 33.5593 20.2536 33.4731 20.2247C33.358 20.1862 33.3456 20.2004 33.2982 20.1157C33.2425 19.9606 33.4004 19.329 33.3157 19.0011C33.1996 18.5511 32.2851 18.1376 31.8406 17.9509C30.2879 17.2986 30.2175 17.4756 28.8075 17.1038L26.6821 16.6366C26.666 16.4764 26.84 16.4202 26.7533 16.1608C26.7054 16.0178 26.5989 15.9205 26.4154 15.8845C25.6477 15.7339 25.9754 16.1142 25.4325 15.7782C24.9122 15.456 24.4192 15.1357 23.9054 14.828C22.8006 14.1663 22.4097 14.0547 21.0621 13.9011C20.8201 13.8735 20.0245 13.8713 19.886 13.7909C19.602 13.8385 18.7335 13.7628 18.3851 13.7527C17.8847 13.7381 17.3946 13.7299 16.8947 13.7187C16.5621 13.7112 14.2064 13.8026 14.0123 13.8573H14.0123Z" fill="white" stroke="white" stroke-width="0.054"/>
<path fill-rule="evenodd" clip-rule="evenodd" d="M11.0007 16.3078L11.0966 16.2842C11.1239 16.4273 11.0787 16.3704 11.1819 16.3986L11.5162 15.7941C11.6255 15.6254 11.8112 15.3788 11.9339 15.2453C11.7872 15.6518 11.5317 16.1339 11.392 16.5795C11.329 16.7804 11.3228 16.743 11.2276 16.756C11.2633 16.8295 11.2532 16.8564 11.3656 16.8811C11.5794 16.9281 11.5218 16.8601 11.5511 16.8021L11.4674 16.7878C11.5635 16.2967 11.8592 15.6977 12.0682 15.2752C12.2142 14.98 12.2596 14.8396 12.5112 14.6591C12.6743 14.5421 12.986 14.2979 13.2131 14.2292C13.1392 14.4452 12.9139 14.7992 12.7956 15.0289C12.7401 15.1368 12.4419 15.8162 12.4149 15.8436L12.5768 15.9609C12.4449 15.9685 12.5448 15.974 12.4763 15.9351C12.3656 15.8723 12.4004 15.9068 12.3287 15.9705C12.4733 15.97 12.3662 15.9751 12.4029 15.9884C12.5094 16.0271 12.4614 16.0494 12.6147 16.0002C12.6219 15.9979 12.6305 15.9944 12.6376 15.992C12.8683 15.9122 12.8059 15.9683 12.8465 15.8435L12.6944 15.8403C12.6996 15.6683 13.3502 14.2867 13.4576 14.1546C14.1055 14.115 13.9057 14.1965 14.0558 14.4022L14.1061 14.2345C14.0913 14.1232 13.9682 14.1283 13.9153 14.0522C14.0193 14.0562 13.9351 14.0354 14.008 14.0855C14.076 14.1322 14.0255 14.0952 14.0773 14.1582L14.1038 14.0754C14.0487 13.9512 14.1892 14.056 14.0449 14.0425C14.0331 13.9143 14.1138 14.0317 13.9804 13.9825L13.937 13.975C14.0049 13.8993 13.955 13.9755 14.0123 13.8573C13.5775 13.8976 13.2333 14.0269 12.9473 14.2087C12.3741 14.5731 12.283 14.597 11.8475 15.1364C11.7433 15.2654 11.6449 15.3713 11.5489 15.5053C11.4263 15.6764 11.0619 16.1357 11.0007 16.3078Z" fill="white" stroke="white" stroke-width="0.054"/>
<path fill-rule="evenodd" clip-rule="evenodd" d="M19.3282 23.2013C19.2168 22.5622 20.8317 22.5728 20.9139 23.1753C20.9609 23.52 20.5129 23.6651 20.1332 23.6729C19.7708 23.6804 19.3733 23.4597 19.3282 23.2013ZM20.8131 23.6322C20.8412 23.5629 21.2443 23.3537 20.962 22.9528C20.8547 22.8004 20.8386 22.799 20.6458 22.7147C20.5319 22.6649 20.3477 22.6009 20.1978 22.6032C19.8445 22.5927 19.611 22.6355 19.3754 22.7841C19.1196 22.9455 19.1096 23.3971 19.5449 23.6396C19.8388 23.8033 20.042 23.8236 20.4139 23.7692C20.64 23.7362 20.6631 23.6853 20.8131 23.6322Z" fill="white" stroke="white" stroke-width="0.054"/>
<path fill-rule="evenodd" clip-rule="evenodd" d="M33.277 22.227C33.2758 22.1113 33.2815 22.0107 33.3502 21.911C33.344 21.9778 33.3369 22.0207 33.3266 22.0855L33.277 22.227ZM33.108 22.405C33.0497 22.0617 33.2415 21.7281 33.2417 21.7276C33.2453 21.7128 33.2576 21.7133 33.2656 21.7061C33.2486 21.9016 33.1103 22.3058 33.108 22.405ZM33.314 21.4364C33.3905 21.4839 33.4099 21.33 33.3719 21.5816C33.3077 21.6013 33.4178 21.5836 33.3237 21.5652C33.2957 21.5598 33.3248 21.5449 33.2138 21.5524C33.14 21.7118 33.0715 21.7652 33.0358 22.0206C33.0079 22.2199 32.9312 22.4622 33.0969 22.5507C33.2626 22.4572 33.1776 22.3594 33.277 22.227C33.2869 22.3652 33.2418 22.4162 33.2078 22.5399C33.3766 22.5912 33.3302 22.5318 33.3327 22.5314C33.3986 22.5228 33.3048 22.5162 33.4748 22.5569C33.3975 22.2236 33.3763 22.3814 33.4349 21.9829C33.4656 21.7743 33.4791 21.5408 33.4986 21.3316L33.314 21.4364Z" fill="white" stroke="white" stroke-width="0.054"/>
<path fill-rule="evenodd" clip-rule="evenodd" d="M27.7811 40.5454C27.819 40.4977 27.8523 40.4432 27.8826 40.3916C27.9292 40.3122 27.9722 40.2309 28.0138 40.1494C28.1299 39.9221 28.2366 39.6898 28.3407 39.458C28.6185 38.8389 28.8785 38.2117 29.1348 37.5852C29.352 37.0543 29.5656 36.5222 29.7785 35.9898C29.9337 35.6018 30.0874 35.2129 30.2461 34.8261C30.3644 34.538 30.5304 34.2073 30.8456 34.0525C31.023 33.9653 31.2284 33.9392 31.4279 33.9297C31.7079 33.9162 31.9985 33.9301 32.2804 33.9367C32.3144 33.9501 32.3467 33.9666 32.377 33.986C32.7238 34.2078 32.7441 34.7802 32.7359 35.1219C32.7289 35.4146 32.694 35.7097 32.6504 35.9997C32.6019 36.3224 32.5408 36.6437 32.4765 36.9641C32.3984 37.3534 32.3144 37.7418 32.2393 38.1315C32.1763 38.4588 32.115 38.7955 32.0894 39.1269C32.0839 39.199 32.0926 39.2701 32.1144 39.3396C32.179 39.5458 32.3529 39.7221 32.5229 39.8667C32.6142 39.9444 32.7101 40.0174 32.8055 40.0909C32.8891 40.1553 32.9747 40.2209 33.0514 40.292C33.4682 40.099 33.9049 39.838 34.0556 39.4181C34.1557 39.1393 34.1213 38.8256 34.0729 38.541C34.0413 38.355 34.001 38.1699 33.9624 37.9849C33.9167 37.7655 33.8728 37.5461 33.8368 37.3251C33.786 37.0134 33.7262 36.7035 33.6625 36.3938C33.6125 36.1501 33.5594 35.9063 33.5157 35.6616C33.4539 35.3155 33.4012 34.9323 33.5095 34.5896C33.5894 34.3368 33.7475 34.1287 33.9471 33.9391L33.9476 33.9387L33.9488 33.9382L33.9495 33.9382C34.2358 33.9311 34.5361 33.9199 34.8216 33.9401C35.022 33.9543 35.2236 33.9867 35.4001 34.0771C35.5594 34.1588 35.6783 34.2773 35.7788 34.4131C35.9194 34.6028 36.0283 34.8275 36.1233 35.0381C36.2712 35.3662 36.4014 35.7037 36.5311 36.0379C36.7202 36.5249 36.9071 37.0123 37.0997 37.4982C37.4103 38.2818 37.7596 39.0524 38.0898 39.8294C38.2185 40.1323 38.338 40.4381 38.4459 40.7475C38.5217 40.9648 38.5908 41.1831 38.6581 41.4026C38.7052 41.5559 38.7511 41.7119 38.8086 41.8623C38.8529 41.9783 38.9053 42.0911 38.9794 42.1946C39.0923 42.3523 39.2439 42.4707 39.4133 42.5781C39.6821 42.7485 39.9914 42.8958 40.2818 43.0347C40.3238 43.0549 40.3674 43.0724 40.412 43.0875C40.71 43.188 41.0569 43.1775 41.3701 43.1617C41.7237 43.1438 42.0801 43.114 42.4329 43.1586C42.6665 43.1881 42.888 43.2491 43.0526 43.408C43.158 43.5097 43.2289 43.6388 43.2915 43.7645C43.3737 43.9297 43.4476 44.0954 43.5378 44.2578C43.6475 44.4553 43.7463 44.6577 43.8549 44.8559C43.9772 45.079 44.1373 45.3563 44.332 45.535C44.8423 45.2938 45.2806 44.9457 45.7599 44.6603C45.8748 44.5919 46.1034 44.5357 46.2369 44.5064C46.4897 44.4508 46.7574 44.4165 47.0177 44.4117C47.4311 44.404 47.9447 44.4718 48.1942 44.8044C48.2047 44.8183 48.2196 44.8505 48.2283 44.8665C48.2524 44.9108 48.2764 44.9552 48.3004 44.9995C48.3345 45.0625 48.3737 45.1294 48.4041 45.1935C48.5185 45.435 48.6292 45.6778 48.7469 45.9181C48.8652 46.1599 48.9885 46.3996 49.109 46.6405C49.193 46.8083 49.281 47.0326 49.2567 47.2198C49.2423 47.331 49.1864 47.4297 49.0693 47.4787C48.903 47.5482 48.6754 47.4902 48.5538 47.3719L48.2277 46.9007C48.2089 46.8757 48.189 46.8488 48.1659 46.8265C48.1548 47.0361 48.1588 47.2492 48.1631 47.4589C48.1683 47.7181 48.1767 47.9772 48.1813 48.2364C48.187 48.5571 48.1894 48.8821 48.1665 49.2022C48.1517 49.4093 48.1228 49.7019 48.0266 49.892L48.0261 49.8925L48.0252 49.8934L48.0246 49.8938C47.8444 49.9565 47.4771 50.087 47.2949 49.9744C47.1272 49.8707 47.1114 49.5587 47.1015 49.3958C47.0893 49.1928 47.1191 49.0029 47.1428 48.8024C47.1581 48.6724 47.1775 48.4982 47.1022 48.38C47.0393 48.2813 46.9224 48.2357 46.8037 48.2109C46.8064 48.6078 46.9809 49.5695 46.6733 49.8631C46.5612 49.9701 46.3567 50.1422 46.1738 50.0909C45.8999 50.0142 45.8214 49.4688 45.7938 49.2599C45.7606 49.0089 45.7467 48.7535 45.7394 48.5009C45.7311 48.2154 45.7321 47.9295 45.7362 47.6439C45.7418 47.2641 45.7539 46.8844 45.7618 46.5047C45.768 46.2104 45.7755 45.9076 45.757 45.6137C45.6356 45.6642 45.5193 45.7314 45.4096 45.7997C45.284 45.8779 45.1623 45.9611 45.0398 46.0431C44.7624 46.2287 44.3134 46.5399 43.9461 46.4909C43.8165 46.4736 43.7095 46.4157 43.6196 46.3327L44.4447 49.2523L44.4427 49.2546L42.8946 49.2524C42.8459 50.0718 42.0599 50.2374 42.0052 49.2894C41.1638 49.3086 42.125 49.652 41.3412 49.8841C41.2415 49.9137 41.1439 49.9088 41.0551 49.8568C40.9933 49.8207 40.9562 49.7764 40.911 49.7264C40.9046 49.7194 40.8027 49.6143 40.8106 49.6048C40.8141 49.6004 40.8184 49.6043 40.8168 49.5938C40.8131 49.5705 40.7842 49.5232 40.7712 49.5015L38.9165 49.2562L38.9149 49.2541L38.9153 49.2529C39.0548 48.5204 39.3338 47.8138 39.5909 47.1095C39.9639 46.0876 40.2881 45.0735 40.138 43.9858C40.0066 43.7734 38.9903 43.292 38.7295 43.1666C38.3987 43.0075 38.0651 42.8535 37.7333 42.6962C37.6579 42.6604 37.2723 42.4832 37.2275 42.4318C36.8926 42.0486 36.7191 41.5043 36.5721 41.0417C36.4812 40.7557 36.3937 40.4659 36.277 40.1873C36.175 39.9436 36.0442 39.6941 35.8544 39.4944C35.7775 40.2804 35.7478 41.0727 35.737 41.8615C35.7253 42.7166 35.737 43.5721 35.755 44.4271C35.7858 45.8867 35.8413 47.3493 35.8306 48.809C35.8245 49.645 35.5579 49.9336 34.6001 49.9137C34.3017 49.9075 33.9884 49.8535 33.7724 49.6543C33.5564 49.455 33.4877 49.1554 33.4594 48.8886C33.4397 48.7027 33.4378 48.5136 33.4415 48.327C33.446 48.1017 33.4591 47.8763 33.4732 47.6514C33.5082 47.0917 33.5471 46.5348 33.5573 45.974C33.5698 45.2773 33.541 44.5835 33.4563 43.8906L32.7827 43.8892C32.6892 44.5543 32.6603 45.2219 32.6726 45.8918C32.6831 46.4557 32.7246 47.0156 32.7604 47.5782C32.7753 47.8106 32.7888 48.0436 32.7931 48.2763C32.7967 48.4717 32.7941 48.6696 32.7725 48.8642C32.7415 49.1446 32.6664 49.463 32.4339 49.6686C32.2747 49.8094 32.0693 49.8744 31.8507 49.8991C31.485 49.9404 30.9926 49.9599 30.702 49.7164C30.4666 49.5191 30.4143 49.1955 30.4047 48.9215C30.2956 45.7999 30.4923 42.6765 30.4013 39.5546C30.3699 39.5811 30.3425 39.5836 30.3307 39.6334L29.927 40.3928C29.7493 40.8259 29.1292 42.5272 28.7196 42.7132C28.3443 42.7532 27.9855 42.711 27.6769 42.5041C27.3938 42.3143 27.2041 42.0206 27.0512 41.741C26.8701 41.4097 26.7214 41.0659 26.5318 40.7378L24.9156 38.0863C24.882 38.4322 24.8508 38.7826 24.8453 39.1298C24.8414 39.375 24.8529 39.6158 24.8914 39.8588C24.9384 40.1545 25.022 40.4461 25.1066 40.7347C25.2412 41.1941 25.3781 41.6516 25.5035 42.1133C25.582 42.4019 25.6688 42.6891 25.7558 42.9757C25.855 43.303 25.9555 43.6299 26.0525 43.9577C26.1625 44.3298 26.2689 44.7037 26.3607 45.0797C26.4372 45.3931 26.5086 45.7187 26.5411 46.0383V46.0396L26.5391 46.0416L24.2802 46.0299C24.2767 46.2915 24.2819 46.554 24.2869 46.8156C24.2928 47.1302 24.2997 47.4447 24.3029 47.7593C24.3067 48.1329 24.3066 48.5082 24.2883 48.8814C24.2805 49.0406 24.2693 49.2001 24.2503 49.3585C24.2353 49.4838 24.2156 49.6122 24.1823 49.7347V49.7354L24.1813 49.7365L24.1806 49.7369C23.7281 49.9255 23.6018 49.9155 23.1435 49.7467L23.1427 49.7463L23.1417 49.7451V49.7444C23.0487 49.3534 23.0428 48.9208 23.0437 48.5218C23.0442 48.3102 23.0481 48.0985 23.0482 47.8869C23.0482 47.5399 23.0535 47.1929 23.0593 46.846C23.0616 46.7077 23.0698 45.9943 22.8107 45.9777C22.6617 45.9682 22.5394 46.1928 22.4987 46.2937C22.4792 46.3419 22.4723 46.4594 22.468 46.5128C22.4622 46.5832 22.4565 46.6567 22.456 46.7273C22.4533 47.0756 22.4722 47.4238 22.4725 47.7721C22.473 48.0158 22.4803 48.2595 22.4827 48.5032C22.4848 48.7197 22.4834 48.937 22.4685 49.1531C22.4552 49.3455 22.4313 49.5434 22.3791 49.7308V49.7314L22.3781 49.7325L22.3774 49.7329C21.8723 49.9408 21.86 49.9406 21.3428 49.7523L21.3421 49.7519L21.341 49.7508V49.7501C21.2697 49.4614 21.2458 49.1439 21.2318 48.8489C21.2142 48.48 21.215 48.1093 21.2197 47.7402C21.2236 47.437 21.2308 47.1338 21.2359 46.8306C21.2404 46.566 21.244 46.3005 21.2374 46.0359L19.1428 46.0328L19.1408 46.0308V46.0295C19.1911 45.4073 19.3329 44.7886 19.4994 44.1838C19.6777 43.5364 19.8872 42.8959 20.0787 42.2515C20.2765 41.5859 20.4564 40.9152 20.5708 40.2337C20.6875 39.539 20.7343 38.8387 20.6687 38.1376C20.5881 38.2011 20.509 38.3044 20.4504 38.3834C20.3478 38.5215 20.2539 38.667 20.1638 38.812C19.9282 39.1911 19.7109 39.5826 19.4985 39.9725C19.3166 40.3064 19.1387 40.6421 18.961 40.9778C18.8299 41.2254 18.7 41.475 18.5628 41.7198C18.4901 41.8494 18.4246 41.9834 18.3487 42.1112C18.2915 42.2076 18.2248 42.3041 18.1305 42.3751C17.9188 42.5343 17.5967 42.5236 17.3383 42.5009H17.3375L17.336 42.4999L17.3355 42.4991C17.2333 42.2955 17.1947 42.09 17.2331 41.8688C17.2675 41.6706 17.3591 41.4831 17.4614 41.3061C17.5766 41.107 17.7073 40.9151 17.8238 40.7163C18.1799 40.1087 18.49 39.4815 18.8446 38.8733C19.0702 38.4863 19.2842 38.095 19.4927 37.7004C19.6509 37.401 19.805 37.099 19.9695 36.8023C20.1841 36.4153 20.4442 35.9728 20.8419 35.7119C21.1895 35.4839 21.6107 35.4095 22.0322 35.3803C22.3392 35.3591 22.6515 35.3616 22.959 35.3715C23.3715 35.3847 23.7845 35.4122 24.1958 35.4428C24.249 35.4468 24.3017 35.4549 24.3534 35.4672C24.9281 35.6035 25.3349 36.2574 25.5842 36.6962C25.8038 37.0827 25.9959 37.4847 26.1892 37.8822C26.4027 38.3213 26.6173 38.7601 26.8573 39.1883C27.1219 39.6605 27.4201 40.127 27.7816 40.5457L27.7811 40.5454ZM35.2226 32.3474C35.0829 32.4092 34.9639 32.4914 34.8493 32.585C34.629 32.7651 34.4551 32.9479 34.1897 33.0831C33.8108 33.2762 33.3654 33.3079 32.9382 33.286C32.1331 33.2448 31.4398 32.8677 31.0269 32.2487C30.7595 31.8476 30.6334 31.3747 30.6718 30.9088C30.7129 30.4098 30.9381 29.9503 31.3171 29.5826C31.5819 29.3257 31.8664 29.139 32.25 29.0555C32.486 29.0042 32.7341 28.9952 32.9759 28.9867C33.281 28.9761 33.5781 28.9643 33.8813 28.9261L33.8821 28.926L33.8835 28.9264L33.8841 28.9269C34.0668 29.0781 34.2674 29.2014 34.4734 29.3252C34.6601 29.4374 34.8508 29.5505 35.0133 29.6905C35.2958 29.9337 35.4305 30.2116 35.4772 30.5583C35.5101 30.8024 35.4957 31.0565 35.4629 31.3001C35.4154 31.6517 35.3266 32.0037 35.2243 32.3455V32.3461L35.2235 32.3471L35.2226 32.3474ZM25.3423 32.0505C25.2454 32.1402 25.1461 32.2243 25.0438 32.3088C24.9899 32.3533 24.93 32.4013 24.8894 32.4563C24.8402 32.5229 24.8181 32.6043 24.8001 32.6815C24.7616 32.8458 24.7347 33.0162 24.7037 33.182C24.6245 33.6053 24.4409 33.9659 24.0539 34.2296C23.9658 34.2896 23.8715 34.3421 23.7727 34.3868C23.5531 34.4862 23.3127 34.5472 23.0687 34.5733C22.4508 34.6392 21.7201 34.4812 21.2941 34.0535C20.8443 33.6017 20.7348 32.8705 20.9237 32.3028C21.1808 31.5303 21.898 31.1464 22.7716 31.1114C22.8709 31.1075 22.9722 31.107 23.0711 31.1173C23.1125 31.1216 23.1622 31.1318 23.2031 31.1314C23.2891 31.1308 23.4515 31.0432 23.5249 31.0073C23.618 30.962 23.6797 30.9245 23.7484 30.8533C23.7829 30.8175 23.813 30.79 23.8559 30.7617C23.9356 30.709 24.0328 30.6653 24.122 30.6273L24.1236 30.6266L24.1266 30.6282V30.6297C24.1503 30.8367 24.1305 30.9904 24.2567 31.177L24.6823 31.5907C24.7539 31.6684 24.8313 31.7542 24.9124 31.8242C24.946 31.8532 24.9782 31.8773 25.0221 31.8925C25.0584 31.9051 25.0925 31.9137 25.1287 31.9286C25.2029 31.9594 25.2754 32.0033 25.3417 32.0459L25.3429 32.0467L25.3434 32.0495L25.3423 32.0505ZM42.5686 40.7846L43.3317 41.3759V41.3789L43.3303 41.3797C43.0956 41.5235 42.9969 41.693 42.9261 41.9324C42.8791 42.0912 42.848 42.2497 42.7625 42.3974C42.6516 42.5892 42.4753 42.7138 42.2613 42.8076C41.9246 42.9552 41.5488 42.9565 41.2092 42.8161C40.9223 42.6975 40.666 42.4745 40.569 42.2009C40.4362 41.8266 40.4268 41.4259 40.7506 41.1275C40.9115 40.9793 41.1261 40.8824 41.3443 40.8208C41.5815 40.7539 41.8427 40.7223 42.0913 40.7221C42.2124 40.7221 42.4602 40.7317 42.5688 40.7846L42.5686 40.7846ZM48.1712 42.9095C48.1478 43.247 48.0448 43.5998 47.7845 43.8552C47.5858 44.0502 47.3201 44.1614 47.0261 44.176C46.7001 44.1921 46.3706 44.0872 46.1252 43.8953C45.8539 43.683 45.7114 43.3886 45.7162 43.0667C45.7202 42.7988 45.8328 42.5435 46.035 42.3459C46.2959 42.0911 46.6685 41.9661 47.0524 41.9962C47.2024 42.008 47.3737 42.0326 47.5072 42.0986C47.5959 42.1425 47.6514 42.1959 47.7131 42.266C47.8069 42.3726 47.8704 42.4392 48.0143 42.4964C48.2587 42.5936 48.6201 42.6057 48.8829 42.6064H48.8846L48.8866 42.609L48.886 42.6104C48.8659 42.6603 48.8445 42.717 48.835 42.7696C48.8344 42.7733 48.8321 42.8083 48.8288 42.8099C48.8258 42.8113 48.8192 42.8076 48.816 42.8066C48.806 42.8035 48.7946 42.8028 48.7841 42.8029C48.7259 42.8037 48.6469 42.8312 48.5943 42.8513C48.5852 42.8547 48.5359 42.86 48.5242 42.8616C48.4756 42.8684 48.427 42.8749 48.3783 42.8815C48.3094 42.8908 48.24 42.8995 48.1712 42.9095L48.1712 42.9095Z" fill="white" stroke="white" stroke-width="0.054"/>
<path fill-rule="evenodd" clip-rule="evenodd" d="M33.9497 33.9412C33.0974 34.7505 33.5283 35.4117 33.8402 37.3247C34.0961 38.8942 34.5902 39.5837 33.0508 40.2958C32.7287 39.9961 32.0466 39.6394 32.0862 39.1267C32.2057 37.5781 33.3519 34.3637 32.2791 33.9395C31.0781 33.9126 30.6499 33.8514 30.2494 34.8271C29.7659 36.0055 28.218 40.0092 27.7813 40.5504C26.1483 38.6612 25.6311 35.5524 24.1951 35.4454C20.0946 35.1402 20.7471 35.6155 18.8472 38.8744C18.4742 39.5141 18.2066 40.0687 17.8264 40.7174C17.4542 41.3526 17.0047 41.8335 17.3382 42.4975C18.2083 42.574 18.2388 42.2897 18.5593 41.7182C18.9843 40.96 20.2183 38.4782 20.6711 38.1312C20.9412 40.9905 19.3378 43.6278 19.1437 46.0294L21.2401 46.0326C21.2665 47.0812 21.1267 48.8705 21.3437 49.7491C21.8662 49.9393 21.8749 49.9359 22.3756 49.7297C22.5259 49.1903 22.4696 48.4137 22.469 47.7718C22.4685 47.4274 22.4499 47.0649 22.4524 46.727C22.453 46.6518 22.4713 46.3518 22.4953 46.2924C22.6619 45.8796 23.0817 45.6944 23.0624 46.8457C23.0566 47.1941 23.0515 47.5374 23.0514 47.8866C23.0514 48.5056 23.016 49.2023 23.1448 49.7435C23.606 49.9133 23.7305 49.9207 24.1792 49.7337C24.3874 48.9669 24.2637 46.9958 24.277 46.0265L26.5378 46.0383C26.4337 45.0139 25.7972 43.206 25.5003 42.1137C24.8993 39.9025 24.7254 40.0039 24.9132 38.0758L26.5348 40.736C27.1156 41.7414 27.3185 42.8594 28.7192 42.7099C29.1178 42.5286 29.6953 40.9485 29.9239 40.3914L30.3277 39.6318C30.3401 39.579 30.3763 39.5734 30.4045 39.5472C30.4954 42.6503 30.3 45.8284 30.4081 48.9212C30.4362 49.7259 30.8283 50.0111 31.8503 49.8958C33.5706 49.7016 32.3092 47.2292 32.7797 43.8859L33.4593 43.8873C33.9196 47.6461 32.5823 49.8684 34.6002 49.9104C35.5689 49.9305 35.8212 49.6327 35.8272 48.8087C35.8482 45.9296 35.5795 42.2582 35.8517 39.4867C36.5343 40.1975 36.5474 41.6483 37.2301 42.4297C37.344 42.56 39.9216 43.6297 40.1411 43.9844C40.4003 45.8625 39.2528 47.4987 38.9186 49.2531L40.7736 49.4985C40.898 49.7055 40.7122 49.5014 40.9138 49.7242C40.9722 49.7889 41.0955 49.9536 41.3403 49.881C42.1217 49.6497 41.1569 49.3045 42.0087 49.2861C42.0619 50.2368 42.8449 50.0655 42.8916 49.2491L44.4412 49.2514L43.6135 46.3221C44.2074 46.888 45.0749 45.8913 45.7603 45.6089C45.8471 46.9664 45.3462 51.1253 46.6711 49.8608C46.9782 49.5676 46.8022 48.6319 46.8006 48.2069C47.39 48.3274 47.0688 48.7928 47.1052 49.3955C47.1433 50.027 47.2906 50.146 48.0236 49.8908C48.3002 49.344 48.1198 47.6116 48.163 46.8194C48.1892 46.8432 48.2155 46.879 48.2306 46.899L48.5567 47.3703C48.8222 47.6284 49.5773 47.5837 49.106 46.6418C48.9845 46.3991 48.8656 46.1681 48.7439 45.9194C48.6157 45.6575 48.5265 45.4597 48.401 45.1947C48.3878 45.1667 48.1937 44.8091 48.1915 44.8061C47.6843 44.1303 46.0376 44.4987 45.7619 44.6629C45.262 44.9605 44.8399 45.2988 44.3314 45.5387C44.0175 45.2519 43.7513 44.6488 43.5348 44.2592C43.1895 43.6374 43.1957 43.258 42.4325 43.1617C41.6687 43.0652 40.8663 43.318 40.2803 43.0375C38.4044 42.1397 39.1217 42.2661 38.0867 39.8306C37.755 39.0497 37.4091 38.2875 37.0966 37.4992C35.6834 33.9335 35.9347 33.8923 33.9497 33.9413L33.9497 33.9412Z" fill="white" stroke="white" stroke-width="0.054"/>
<path fill-rule="evenodd" clip-rule="evenodd" d="M35.2211 32.3447C36.0401 29.6076 34.8314 29.7152 33.8818 28.9291C32.711 29.0766 32.1133 28.8147 31.3196 29.5847C29.9426 30.9205 30.8754 33.1773 32.9385 33.283C34.4578 33.361 34.5424 32.6451 35.2211 32.3447Z" fill="white" stroke="white" stroke-width="0.054"/>
<path fill-rule="evenodd" clip-rule="evenodd" d="M25.34 32.0484C24.922 31.7794 25.1037 32.0525 24.6801 31.5926L24.2545 31.1789C24.1275 30.9913 24.1485 30.8474 24.1236 30.6301C23.6532 30.8305 23.8494 30.8527 23.5267 31.01C23.0889 31.2236 23.3159 31.0927 22.7719 31.1145C20.6457 31.1995 20.4705 33.2216 21.2969 34.0515C21.9043 34.6616 23.2315 34.7864 24.0521 34.2272C24.3892 33.9975 24.6088 33.6717 24.7005 33.1815C24.8678 32.2866 24.7826 32.565 25.34 32.0484Z" fill="white" stroke="white" stroke-width="0.054"/>
<path fill-rule="evenodd" clip-rule="evenodd" d="M42.5665 40.7869C42.2561 40.636 40.0211 40.6464 40.5721 42.2C40.7529 42.7096 41.5312 43.1243 42.2597 42.8049C43.1479 42.4155 42.659 41.7874 43.3283 41.3772L42.5665 40.7869Z" fill="white" stroke="white" stroke-width="0.054"/>
<path fill-rule="evenodd" clip-rule="evenodd" d="M48.8829 42.6094C47.3202 42.6053 48.0848 42.0802 47.0522 41.9992C46.3243 41.9421 45.7288 42.443 45.7196 43.0667C45.7003 44.361 48.0405 44.7749 48.1681 42.9069C48.2179 42.8997 48.5862 42.8511 48.5931 42.8485C48.9701 42.705 48.7409 42.9616 48.8829 42.6094Z" fill="white" stroke="white" stroke-width="0.054"/>
<path fill-rule="evenodd" clip-rule="evenodd" d="M43.0592 24.2104C41.5534 24.6283 42.3486 27.1402 43.918 26.7043C45.3469 26.3072 44.6367 23.7724 43.0592 24.2104Z" fill="white" stroke="#000200" stroke-width="0.054"/>
<path fill-rule="evenodd" clip-rule="evenodd" d="M46.3869 23.4086C44.9222 23.788 45.6938 25.9693 47.0706 25.6521C48.4739 25.3286 47.7587 23.0532 46.3869 23.4086Z" fill="white" stroke="#000200" stroke-width="0.054"/>
<path fill-rule="evenodd" clip-rule="evenodd" d="M49.7802 22.7131C48.5602 23.0222 49.3304 24.8826 50.4511 24.6022C50.9476 24.4777 51.1574 23.8814 50.9245 23.3751C50.7723 23.0449 50.3382 22.5718 49.7802 22.7131Z" fill="white" stroke="#000200" stroke-width="0.054"/>
<path fill-rule="evenodd" clip-rule="evenodd" d="M56.615 20.134C56.4123 19.9721 56.1952 19.8221 55.9851 19.6677C55.7843 19.5202 55.5849 19.3711 55.3835 19.224C55.1892 19.082 54.9961 18.9384 54.807 18.7908C54.6875 18.6976 54.5685 18.6025 54.4551 18.5033C54.3893 18.4457 54.2897 18.359 54.2435 18.288C54.2208 18.2653 54.188 18.2347 54.1768 18.2056C54.1687 18.1848 54.1687 18.16 54.1686 18.1382C54.1681 18.0934 54.1686 18.0493 54.1663 18.0044L54.1822 15.5794L54.1834 15.5778L54.1843 15.5775C54.4858 15.4696 56.4054 15.4903 56.7579 15.5601L56.7591 15.5603L56.7606 15.562L56.7536 20.2112L56.7515 20.213L56.7501 20.2129C56.504 20.199 56.682 20.2205 56.615 20.134L56.615 20.134ZM48.9994 33.5091L48.9973 33.5096L48.9963 33.5079L48.9956 33.5074V33.5069C48.9389 33.4103 48.9254 32.7452 48.922 32.6211C48.9064 32.0471 48.9058 31.4716 48.9073 30.8974C48.9096 30.0285 48.9219 29.1603 48.9349 28.2916C48.644 28.2923 48.3519 28.2854 48.0611 28.2797C47.6804 28.2722 47.2997 28.2642 46.919 28.2593C46.4973 28.2539 46.0741 28.2511 45.6525 28.2613C45.4802 28.2655 45.3073 28.2717 45.1354 28.284C45.0116 28.2928 44.882 28.3041 44.7604 28.3271L44.7615 33.5123L44.7595 33.514L44.7582 33.5141C43.2246 33.5525 41.6895 33.5311 40.1555 33.5311C39.8473 33.5311 39.5395 33.5375 39.2315 33.5471C39.0087 33.5541 38.785 33.5637 38.562 33.5656C38.3407 33.5675 37.9972 33.5718 37.8216 33.4305C37.6591 33.2998 37.6308 33.0449 37.6164 32.8622C37.6027 32.6872 37.6015 32.5094 37.601 32.334C37.6002 32.0888 37.6025 31.8436 37.6025 31.5984L37.6021 24.37C37.6021 24.2598 37.6 24.1487 37.6038 24.0386C37.6063 23.9661 37.6121 23.894 37.6307 23.8231C37.6597 23.7126 37.7203 23.6072 37.7794 23.5075L37.7799 23.507L37.7808 23.5063L37.7814 23.5061C37.8399 23.4873 37.9532 23.409 38.0042 23.375C38.1455 23.281 38.2838 23.1821 38.421 23.0833C38.8093 22.8034 39.1921 22.5164 39.5737 22.2293C39.92 21.9688 40.2651 21.7071 40.6107 21.4459C40.8283 21.2815 41.0467 21.1126 41.2695 20.9541L46.9095 16.7405C46.9171 16.7356 46.9839 16.6928 46.9918 16.6819C46.9913 16.6815 46.9912 16.6811 46.9911 16.6805C46.9904 16.6767 47.0059 16.6729 47.0081 16.6721C47.0329 16.663 47.0575 16.6529 47.0818 16.6428L47.0827 16.6424L47.0847 16.6427L48.0434 17.3878C48.1228 17.4616 48.2027 17.5251 48.2929 17.5879C48.3717 17.6428 48.449 17.6958 48.5241 17.7549C48.6834 17.8804 48.8199 18.0179 48.9882 18.1356C49.1562 18.2531 49.2904 18.3941 49.4513 18.5173C49.5236 18.5726 49.5977 18.6242 49.6717 18.6774C49.7639 18.7436 49.8466 18.8128 49.9294 18.8883C50.0797 19.0257 50.2569 19.1232 50.4126 19.2534C50.68 19.477 50.9525 19.6969 51.2237 19.9168C51.6653 20.2749 52.1086 20.6314 52.5538 20.9859C53.0335 21.368 53.5154 21.7493 54.0043 22.122C54.1776 22.2542 54.3523 22.3862 54.5306 22.513C54.5888 22.5543 54.6477 22.5955 54.7081 22.6343C54.7392 22.6542 54.7796 22.6806 54.8144 22.6945L54.8151 22.6948L54.816 22.6957V22.6964C54.8931 22.9099 55.7571 23.4917 55.9892 23.689L55.9897 23.6894L55.9903 23.6906V23.6912C55.9959 26.3677 55.9903 29.0443 55.9903 31.7208C55.9903 31.9422 55.9909 32.1639 55.9861 32.3853C55.9826 32.5452 55.9769 32.7077 55.9578 32.8668C55.9363 33.0453 55.8947 33.2716 55.7343 33.3959C55.5563 33.5338 55.2342 33.5356 55.0118 33.5355C54.8027 33.5353 54.5925 33.5272 54.3834 33.5212C54.0991 33.5131 53.8151 33.5072 53.5306 33.5072C52.0201 33.5072 50.5096 33.4949 48.9992 33.5091L48.9994 33.5091ZM47.1515 15.6375C46.9184 15.7609 46.7266 15.934 46.5171 16.0855C45.0182 17.1695 43.5556 18.2962 42.0942 19.4204C40.791 20.423 39.4889 21.4279 38.163 22.4064C37.9499 22.5637 37.7337 22.7177 37.5224 22.8769C37.3334 23.0193 36.9895 23.2319 36.8887 23.4288L36.8882 23.4294L36.8871 23.4303L36.8864 23.4304C36.8377 23.4425 36.7641 23.4869 36.7214 23.5117C36.6319 23.5638 36.5439 23.6178 36.4543 23.6697C36.2212 23.8045 35.9747 23.9304 35.7117 24.0119C35.0527 24.216 34.5292 24.0569 34.1502 23.5142L34.1497 23.5134V23.5115L34.1503 23.5108C34.2139 23.4299 34.2801 23.3489 34.3649 23.2846C34.4229 23.2407 34.4877 23.2011 34.548 23.1593L37.7843 20.5992C37.9168 20.4897 38.0671 20.405 38.196 20.2911C38.2639 20.231 38.3324 20.1702 38.405 20.1147C38.4674 20.067 38.5333 20.0222 38.598 19.9771C38.7404 19.8778 38.8529 19.7586 38.9886 19.6535L41.0474 18.0596C41.1814 17.9535 41.2986 17.8367 41.4394 17.7368L47.1502 13.2748L47.1524 13.2746L47.1533 13.275C47.2134 13.3048 47.2746 13.3476 47.3285 13.3857C47.4127 13.4454 47.4947 13.5082 47.5755 13.5716C47.783 13.7341 47.9855 13.9027 48.1866 14.0716C48.3628 14.2196 48.538 14.3687 48.7135 14.5175C48.843 14.6273 48.9727 14.7382 49.1055 14.8448L49.8999 15.4824C50.0377 15.5879 50.181 15.6768 50.3101 15.7928C50.4619 15.9295 50.6188 16.0466 50.7829 16.1701C50.8815 16.2444 50.9763 16.3199 51.0665 16.4024L53.4276 18.336C53.545 18.4391 53.6781 18.5197 53.8032 18.6141C54.0058 18.7668 54.2026 18.9286 54.3973 19.0893C54.645 19.2937 54.8907 19.5001 55.1365 19.7063C55.406 19.9323 55.6754 20.1585 55.948 20.3814C56.1476 20.5445 56.3531 20.7136 56.5655 20.8635L59.7292 23.4497L59.7297 23.4518L59.7292 23.4527C59.6049 23.6642 59.4237 23.828 59.1777 23.9243C58.56 24.1662 57.7382 23.9119 57.1955 23.6098C57.0511 23.5294 56.9105 23.4244 56.7816 23.3253C56.6165 23.1983 56.4562 23.0658 56.2967 22.9333C56.0872 22.7592 55.8789 22.5818 55.6626 22.4147C55.5678 22.3414 55.3483 22.1712 55.228 22.1432L55.2274 22.143L55.2263 22.1424L55.2259 22.1419C55.1727 22.0689 55.098 21.996 55.0313 21.9325C54.9394 21.8451 54.8431 21.7607 54.7459 21.678C54.585 21.5413 54.4197 21.4078 54.252 21.2778L47.1515 15.6375Z" fill="white" stroke="white" stroke-width="0.054"/>
<path fill-rule="evenodd" clip-rule="evenodd" d="M37.7827 23.5089C37.5911 23.8323 37.603 23.8836 37.6057 24.37L37.6062 31.5984C37.6062 33.9832 37.4482 33.5281 40.1558 33.5281C41.674 33.5281 43.2479 33.5489 44.7584 33.511L44.7573 28.3247C44.8518 28.2226 44.7675 28.2578 44.9545 28.2257C45.2918 28.1677 48.9521 28.2473 48.9988 28.2546L48.9993 33.5061C50.5073 33.4919 52.0224 33.5042 53.5312 33.5042C55.9797 33.5042 55.9875 33.9011 55.9875 31.7209C55.9875 29.0445 55.9931 26.3676 55.9875 23.6912C55.7807 23.5156 54.8892 22.9075 54.8134 22.6973C54.4655 22.5577 50.9454 19.7028 50.4106 19.2556C50.2367 19.1102 50.0975 19.046 49.9273 18.8905C49.7141 18.6957 49.6538 18.676 49.4495 18.5196C49.2657 18.3789 49.1798 18.2732 48.9865 18.138C48.7876 17.9989 48.7169 17.9106 48.5222 17.7572C48.3276 17.604 48.2338 17.5688 48.0413 17.3899L47.0836 16.6455C46.8999 16.7217 47.0893 16.6293 46.9118 16.743L41.272 20.9564C40.7828 21.3044 38.0487 23.4237 37.7828 23.5089H37.7827Z" fill="white" stroke="white" stroke-width="0.054"/>
<path fill-rule="evenodd" clip-rule="evenodd" d="M36.8857 23.4275C36.9848 23.2339 37.3061 23.036 37.5203 22.8746C37.7219 22.7226 37.9458 22.5629 38.1609 22.4041C40.8713 20.4039 43.8279 18.0265 46.5151 16.0831C46.752 15.9118 46.9156 15.7585 47.1519 15.6338L54.2546 21.2755C54.4976 21.464 55.0719 21.9244 55.229 22.1402C55.5465 22.2142 56.6446 23.2995 57.1975 23.6072C58.0167 24.0632 59.2305 24.2953 59.7264 23.4513L56.5635 20.8658C55.9849 20.4572 54.4653 19.1169 53.8013 18.6164C53.6626 18.5118 53.5526 18.4498 53.4255 18.3382L51.0644 16.4046C50.8108 16.1728 50.6159 16.0721 50.3079 15.795C50.1625 15.6641 50.0518 15.6025 49.898 15.4847L49.1035 14.8471C48.6959 14.5227 47.4757 13.4383 47.1519 13.2777L41.4419 17.7391C41.2811 17.8533 41.2084 17.9363 41.0499 18.0618L38.9911 19.6558C38.8274 19.784 38.7675 19.863 38.6003 19.9795C38.4101 20.1122 38.3876 20.1262 38.1986 20.2932C38.0529 20.422 37.9373 20.4771 37.7869 20.6015L34.5504 23.1616C34.365 23.2902 34.3264 23.2924 34.1533 23.5126C35.0782 24.837 36.6081 23.4963 36.8857 23.4275Z" fill="white" stroke="white" stroke-width="0.054"/>
<path fill-rule="evenodd" clip-rule="evenodd" d="M54.2465 18.2862C54.3707 18.4775 55.1477 19.0477 55.3858 19.2217C55.587 19.3686 55.782 19.5145 55.9874 19.6654C56.2143 19.8321 56.4347 19.9858 56.6177 20.132C56.7007 20.0592 56.6796 20.2224 56.702 19.904C56.7074 19.8263 56.6964 19.6789 56.6958 19.5923L56.7051 15.5865L54.2268 15.5744L54.2465 18.2862Z" fill="white" stroke="white" stroke-width="0.054"/>
<path fill-rule="evenodd" clip-rule="evenodd" d="M48.9991 33.5061L48.9986 28.2546C48.9519 28.2473 45.2916 28.1677 44.9543 28.2257C44.7673 28.2578 44.8516 28.2226 44.7571 28.3247C45.4967 28.1835 48.0111 28.2911 48.9384 28.2885C48.9347 28.5314 48.8482 33.2578 48.9991 33.5061H48.9991Z" fill="white" stroke="white" stroke-width="0.054"/>
<path fill-rule="evenodd" clip-rule="evenodd" d="M54.2463 18.2862L54.2266 15.5744L56.7049 15.5865L56.6955 19.5923C56.6961 19.6789 56.7072 19.8263 56.7017 19.904C56.6794 20.2224 56.7005 20.0592 56.6175 20.132C56.6885 20.2232 56.5062 20.1961 56.7502 20.2099L56.7572 15.5631C56.3886 15.4901 54.4728 15.4775 54.1856 15.5803L54.1697 18.0044C54.1791 18.211 54.1486 18.1886 54.2463 18.2862Z" fill="white" stroke="white" stroke-width="0.054"/>
<path fill-rule="evenodd" clip-rule="evenodd" d="M10.5079 56.8179C10.8103 57.1738 11.0461 57.6259 10.7987 58.0611C10.4077 58.7488 8.9851 59.0698 8.22192 59.2137H8.22135H8.22022L5.72168 58.0806L5.72248 58.0762L5.72497 58.0758C6.16425 58.0219 6.60382 57.9667 7.04178 57.9048C7.2831 57.8707 7.53543 57.8364 7.77317 57.7861C8.13959 57.7086 8.70155 57.5523 8.88702 57.2261C9.0004 57.0267 8.9564 56.7937 8.87428 56.5922C8.74509 56.2753 8.49505 55.9577 8.2621 55.6952L8.26078 55.6938L8.26257 55.6904H8.26463C8.59044 55.6834 8.91786 55.671 9.24245 55.6443C9.47781 55.6249 9.72028 55.5982 9.95042 55.5492C10.3016 55.4744 10.7633 55.3277 10.9388 55.0188C11.1227 54.6952 10.9724 54.2808 10.8128 53.9746L9.60567 54.8695H9.60364L8.22817 54.2458L8.22765 54.2427L10.1146 52.5613L10.1167 52.5609L11.7128 53.2847L11.7133 53.2879L11.044 53.7893L12.6628 54.3084L12.6639 54.3094V54.3101C12.833 54.8275 12.8178 55.3373 12.5429 55.821C12.1364 56.5363 11.3675 56.7913 10.5077 56.8175L10.5079 56.8179ZM13.7979 59.9271L12.7501 59.7962L11.9865 60.7705L11.9843 60.7711L10.5672 60.3339L10.5661 60.3312L13.9425 55.2255L13.9448 55.2247L15.7639 55.8165L15.966 55.3822L15.9684 55.3812L17.9353 55.9879L17.9364 55.9904L14.9379 61.6805L14.9355 61.6814L13.2438 61.1595L13.2426 61.1571L13.7979 59.9271ZM25.2141 62.8329L23.6132 65.0587L23.6112 65.0595L22.0719 64.7626L22.0705 64.7598L22.8633 63.5281L15.6362 62.1347L15.6347 62.1323L17.9962 56.1909L17.9984 56.1898L20.022 56.5801L20.0234 56.5826L17.9122 61.1706L18.9658 61.4324L20.75 57.0563L20.7523 57.0552L22.6865 57.4971L22.6879 57.4996L20.672 61.8307L21.6958 62.0769L23.7219 57.2949L23.7241 57.2939L25.6945 57.674L25.6959 57.6765L23.0823 63.1186L23.6923 62.2862L23.6942 62.2854L25.2651 62.5884L26.2133 58.0395L26.2155 58.038L28.1762 58.241L28.1779 58.2432L27.5335 60.8461L29.47 58.0472L29.4717 58.0465L31.2956 58.2083L31.2974 58.2107L31.2863 58.2469L35.3073 58.3091L35.3094 58.3113L35.0124 59.7135L35.0105 59.7149L34.0328 59.6996L32.9167 64.5278L32.9148 64.5292L31.2436 64.5031L31.2417 64.5011L31.9429 59.9802L31.9443 59.9788L33.3352 59.6887L30.9281 59.6517L30.9261 59.6496L31.0232 59.1128L29.4379 64.329L29.4358 64.3303L27.7827 64.1836L27.7809 64.1815L28.464 61.4306L26.9148 62.984L26.6092 64.0781L26.6072 64.0794L24.9865 63.9358L24.9847 63.9337L25.2141 62.8329ZM37.9794 63.0812L36.9479 63.2897L36.6199 64.4426L36.6181 64.4439L35.1196 64.4831L35.1174 64.481L36.2497 58.6383L36.2516 58.6368L38.1877 58.615L38.2044 58.1449L38.2063 58.1433L40.2864 58.0884L40.2885 58.0903L39.7413 64.3599L39.7394 64.3615L37.9501 64.4086L37.948 64.4068L37.9794 63.0812ZM44.6274 60.0696L44.4779 61.4575L44.4762 61.459L40.5307 61.8086L40.5284 61.8066L40.6662 60.3134L40.6679 60.3118L44.6252 60.0677L44.6274 60.0696ZM49.1084 59.056L48.7928 63.2085L48.7913 63.21L47.3834 63.5014L47.381 63.5001L46.4201 60.0925L46.4955 63.6836L46.494 63.6853L45.2642 63.94L45.2617 63.9384L44.5009 58.3292L44.5024 58.3273L47.0658 57.7967L47.0682 57.798L47.889 60.9591L48.1743 56.9168L48.1757 56.9153L50.8284 56.3664L50.8309 56.3681L51.2363 62.7023L51.2348 62.7041L49.6905 63.0237L49.6881 63.0222L49.1084 59.056ZM55.0759 61.3762L54.2345 58.3317L54.2357 58.3297L56.0186 57.7496L56.0213 57.751L56.6842 61.1199L56.683 61.1218L53.3833 62.1952L53.3816 62.1948L53.3809 62.1944C52.6606 61.7136 52.0902 61.1099 51.7799 60.3493C51.5072 59.6807 51.4652 58.9783 51.577 58.2775C51.713 57.4254 52.071 56.5898 52.502 55.8244L52.5025 55.8239L52.5035 55.8232L55.4101 54.8775L55.4131 54.8811L55.4116 54.8829C54.3122 56.1601 53.149 57.942 53.6762 59.6173C53.6998 59.6921 53.7265 59.7662 53.7563 59.8393C54.0123 60.4666 54.4926 60.9699 55.0761 61.376L55.0759 61.3762ZM58.3991 57.0563L59.344 60.2435L59.343 60.2455L57.9692 60.8047L57.9664 60.8037L55.6677 55.259L55.6688 55.2569L58.1891 54.2303L58.1915 54.231L60.0839 57.2024L58.7798 53.5901L58.7809 53.588L60.3412 52.9526L60.344 52.9538L62.2828 59.0464L62.2818 59.0484L60.3203 59.8474L60.3179 59.8468L58.3991 57.0563ZM15.6587 56.0225L13.5077 58.8136L14.1993 59.067L15.6587 56.0225ZM38.1711 58.8407L37.2665 62.1315L38.0138 62.1496L38.1711 58.8407Z" fill="white"/>
<path fill-rule="evenodd" clip-rule="evenodd" d="M12.54 55.82C12.179 56.4546 11.4992 56.786 10.5012 56.8151C10.902 57.2847 11.0003 57.6996 10.7956 58.0597C10.5129 58.5569 9.65473 58.9404 8.22115 59.2107L5.72534 58.0789C6.79827 57.9472 7.4811 57.8505 7.77384 57.7891C8.37806 57.6607 8.75008 57.4736 8.88993 57.2276C9.08163 56.8905 8.8732 56.3792 8.26464 55.6934C9.00602 55.6775 9.56842 55.6303 9.95115 55.5521C10.4751 55.4372 10.8053 55.2603 10.9418 55.0202C11.088 54.7628 11.0455 54.4128 10.814 53.9698L9.60421 54.8666L8.23119 54.244L10.1161 52.5644L11.7096 53.287L11.0371 53.7908L12.6607 54.3113C12.8401 54.86 12.7996 55.3626 12.54 55.82ZM17.9327 55.9904L14.9354 61.6782L13.2462 61.157L13.8026 59.9246L12.7484 59.7929L11.9843 60.7679L10.5697 60.3315L13.9448 55.2279L15.7658 55.8203L15.9685 55.3845L17.9327 55.9904ZM15.6751 55.9958L13.5025 58.815L14.201 59.0709L15.6751 55.9958ZM25.3693 62.6116L23.6108 65.0563L22.0742 64.76L22.8685 63.5261L15.6383 62.132L17.999 56.193L20.0197 56.5828L17.9076 61.1726L18.9678 61.436L20.7527 57.0584L22.6841 57.4997L20.6674 61.8327L21.6978 62.0805L23.7246 57.297L25.6921 57.6766L23.0638 63.1492L23.6945 62.2886L25.3693 62.6116ZM31.2937 58.2112L29.4348 64.3271L27.7845 64.1807L28.47 61.4199L26.9116 62.9825L26.6062 64.0763L24.9882 63.9329L26.2164 58.0412L28.1742 58.2438L27.5259 60.8628L29.4723 58.0496L31.2937 58.2112ZM35.3057 58.3121L35.0093 59.7118L34.03 59.6965L32.9136 64.5262L31.2451 64.5001L31.946 59.9815L33.3626 59.6861L30.9297 59.6487L31.1829 58.2483L35.3057 58.3121ZM40.2849 58.0915L39.7379 64.3585L37.9514 64.4055L37.9828 63.0773L36.945 63.2872L36.6168 64.4409L35.121 64.4801L36.2528 58.6399L38.1909 58.618L38.2077 58.1462L40.2849 58.0915ZM38.1759 58.8105L37.2622 62.1344L38.017 62.1527L38.1759 58.8105ZM44.6238 60.0707L44.4746 61.4561L40.5318 61.8054L40.6693 60.3147L44.6238 60.0707ZM50.8275 56.3696L51.2327 62.7014L49.6911 63.0205L49.1072 59.0254L48.7894 63.2073L47.3839 63.4982L46.416 60.0662L46.492 63.6826L45.2648 63.9368L44.5044 58.33L47.0651 57.7999L47.8908 60.9798L48.1775 56.918L50.8275 56.3696ZM55.4086 54.8813C53.7449 56.8142 53.1929 58.4674 53.7529 59.8405C53.9891 60.4189 54.4317 60.9334 55.0815 61.384L54.238 58.3321L56.0182 57.7529L56.6806 61.1193L53.3829 62.1922C52.6061 61.6737 52.0731 61.0595 51.783 60.3485C51.2722 59.0958 51.5127 57.588 52.505 55.826L55.4086 54.8813ZM60.3411 52.9559L62.2792 59.0461L60.32 59.8441L58.3899 57.0372L59.3404 60.2431L57.969 60.8014L55.6713 55.2591L58.1892 54.2335L60.0972 57.2293L58.7834 53.5902L60.3411 52.9559Z" fill="white"/>
<path fill-rule="evenodd" clip-rule="evenodd" d="M7.15539 13.3102C7.15539 13.1495 7.37586 13.0994 7.5102 13.0573L9.70568 12.2214C9.97694 12.0979 10.2464 12.0051 10.5368 11.8757L11.7738 11.2714C11.9199 11.1989 12.0134 11.1653 12.1522 11.0909C13.7978 10.2037 15.8677 8.96151 16.5049 7.25893C16.6178 6.95694 16.708 6.99646 17.287 6.86967C18.7077 6.55748 34.2921 2.67974 34.7437 2.67974L40.5771 4.09812C43.5937 4.88519 47.0815 5.65679 50.2067 6.42377C50.8375 6.57855 51.4853 6.7521 52.1662 6.9003C53.1556 7.11567 52.4551 7.03828 53.2553 8.10429C53.7824 8.80607 53.7853 8.7435 54.4055 9.30466C54.6017 9.48282 54.8332 9.64649 55.0618 9.80654C55.9569 10.4322 57.039 11.08 58.0625 11.5299C58.9812 11.9336 59.4752 12.2056 60.5267 12.5919C60.7674 12.6799 62.158 13.1093 62.158 13.3102V38.7205C62.158 41.0577 61.6743 43.9481 60.8907 46.0393L60.0714 48.1067C60.4255 48.1808 60.6449 48.3959 60.9989 48.4703C61.0159 48.2882 61.1565 48.0386 61.2223 47.8924C61.5304 47.2067 62.0464 45.8598 62.2397 45.1722C62.3538 44.7668 62.4712 44.3927 62.5591 44.0064C62.9272 42.4062 63.2014 40.6914 63.2014 38.7725V12.7915C63.2014 12.6173 63.01 12.6031 62.833 12.5508C61.2989 12.0963 58.7273 10.9364 57.2425 10.1368L55.7379 9.20158C55.5903 9.09357 55.5329 9.06195 55.3915 8.94142C54.9127 8.5334 55.0687 8.76721 54.4408 8.08025C53.1887 6.71028 54.2222 6.54628 53.2093 6.33025L42.6725 3.77868C41.9783 3.6262 41.3544 3.44837 40.668 3.29063C40.1557 3.17273 34.849 1.85545 34.6326 1.8594L22.5848 4.76466C21.9334 4.91285 21.2569 5.0785 20.5774 5.25041C19.887 5.42528 19.22 5.55964 18.5664 5.73286L16.0573 6.3398C15.429 6.46988 15.7202 6.45473 15.538 7.01556C14.9082 8.94833 11.3631 10.5459 9.55072 11.356C8.90662 11.6441 7.18704 12.341 6.4362 12.5629C6.26652 12.613 6.1123 12.6262 6.1123 12.7915V38.6688C6.1123 41.4459 6.73948 44.8096 7.83372 47.2923L8.25699 48.3145C8.61106 48.2401 8.83006 48.0251 9.18414 47.9513L8.75608 46.9344C8.33575 45.8585 7.99493 44.8405 7.73986 43.6945C7.39426 42.1424 7.15539 40.5284 7.15539 38.6688V13.3102Z" fill="white" stroke="white" stroke-width="0.177175"/>
<path d="M1.93359 59.3L3.84075 51.049L11.265 47.7352C18.3322 52.8973 26.8456 54.2763 32.967 54.2617L34.5642 55.6693L35.9369 54.4491C45.5988 54.7068 53.0357 51.1318 57.9131 47.7555L65.3365 51.1958C65.9366 53.9144 66.5363 56.633 67.1364 59.3516C59.3476 63.512 51.314 67.9194 36.3927 69.1419L34.5062 70.7083C33.838 70.153 33.1701 69.5979 32.5019 69.0426C23.4531 68.0849 11.344 65.9575 1.93359 59.3V59.3Z" stroke="white"/>
<path fill-rule="evenodd" clip-rule="evenodd" d="M9.48251 14.6724C9.48251 14.5253 9.68439 14.4794 9.80741 14.4408L11.8178 13.6755C12.0662 13.5624 12.313 13.4773 12.5789 13.3588L13.7117 12.8055C13.8455 12.7391 13.9311 12.7084 14.0581 12.6402C15.565 11.8278 17.4605 10.6903 18.0439 9.13123C18.1474 8.8547 18.23 8.89089 18.7601 8.77479C20.0611 8.48891 34.3319 4.93802 34.7455 4.93802L40.0872 6.23684C42.8496 6.95757 46.0433 7.66413 48.9051 8.36647C49.4828 8.50821 50.076 8.66713 50.6995 8.80283C51.6055 9.00006 50.9641 8.92919 51.6968 9.90534C52.1794 10.548 52.1821 10.4907 52.75 11.0045C52.9297 11.1677 53.1417 11.3176 53.351 11.4641C54.1706 12.0371 55.1615 12.6303 56.0988 13.0422C56.9401 13.4119 57.3924 13.661 58.3553 14.0147C58.5757 14.0952 59.8491 14.4885 59.8491 14.6724V37.9409C59.8491 40.0811 59.4062 42.7279 58.6886 44.6429L57.9384 46.5361C58.2626 46.6039 58.4635 46.8008 58.7877 46.869C58.8032 46.7022 58.932 46.4736 58.9923 46.3397C59.2744 45.7119 59.7469 44.4785 59.9239 43.8489C60.0284 43.4776 60.1359 43.1351 60.2164 42.7813C60.5535 41.316 60.8046 39.7458 60.8046 37.9886V14.1975C60.8046 14.0379 60.6293 14.025 60.4672 13.977C59.0624 13.5609 56.7075 12.4988 55.3479 11.7666L53.9701 10.9101C53.835 10.8112 53.7824 10.7823 53.653 10.6719C53.2145 10.2983 53.3574 10.5124 52.7824 9.88333C51.6358 8.62883 52.5822 8.47865 51.6547 8.28083L42.006 5.94433C41.3703 5.8047 40.799 5.64186 40.1704 5.49741C39.7013 5.38945 34.8419 4.1832 34.6437 4.18683L23.6115 6.8472C23.0149 6.9829 22.3954 7.13459 21.7733 7.29201C21.141 7.45214 20.5303 7.57517 19.9317 7.7338L17.6341 8.28958C17.0588 8.40869 17.3254 8.39482 17.1585 8.90838C16.5819 10.6782 13.3355 12.1411 11.676 12.883C11.0861 13.1468 9.51149 13.7849 8.82394 13.9882C8.66856 14.034 8.52734 14.0461 8.52734 14.1975V37.8936C8.52734 40.4367 9.10166 43.5168 10.1037 45.7903L10.4913 46.7264C10.8155 46.6582 11.016 46.4613 11.3403 46.3937L10.9483 45.4625C10.5634 44.4773 10.2513 43.5452 10.0177 42.4957C9.70125 41.0745 9.48251 39.5965 9.48251 37.8936V14.6724Z" fill="white" stroke="white" stroke-width="0.177175"/>
<path fill-rule="evenodd" clip-rule="evenodd" d="M6.35106 12.8031C6.35106 12.6374 6.57831 12.5858 6.71678 12.5424L8.97981 11.6809C9.25942 11.5536 9.53712 11.4578 9.83646 11.3244L11.1116 10.7015C11.2622 10.6269 11.3585 10.5922 11.5016 10.5155C13.1978 9.60103 15.3315 8.32062 15.9882 6.56566C16.1046 6.25438 16.1976 6.29511 16.7944 6.16442C18.2588 5.84262 34.3227 1.84558 34.7882 1.84558L40.8011 3.3076C43.9105 4.11889 47.5056 4.91423 50.7269 5.70481C51.3772 5.86435 52.0449 6.04324 52.7468 6.19599C53.7665 6.418 53.0446 6.33823 53.8694 7.43703C54.4126 8.1604 54.4157 8.09591 55.0549 8.67433C55.2571 8.85798 55.4958 9.02668 55.7314 9.19166C56.654 9.83661 57.7694 10.5043 58.8245 10.968C59.7714 11.3842 60.2806 11.6646 61.3645 12.0627C61.6126 12.1534 63.0459 12.596 63.0459 12.8031V38.9952C63.0459 41.4043 62.5474 44.3836 61.7397 46.5392L60.8952 48.6702C61.2602 48.7466 61.4863 48.9683 61.8512 49.045C61.8687 48.8573 62.0136 48.6 62.0815 48.4492C62.3991 47.7425 62.931 46.3541 63.1301 45.6454C63.2477 45.2275 63.3688 44.8419 63.4594 44.4437C63.8388 42.7943 64.1215 41.0268 64.1215 39.0488V12.2684C64.1215 12.0889 63.9242 12.0743 63.7417 12.0203C62.1604 11.5519 59.5097 10.3563 57.9792 9.53213L56.4283 8.56808C56.2762 8.45674 56.217 8.42416 56.0713 8.29992C55.5777 7.87933 55.7386 8.12035 55.0914 7.41225C53.8007 6.00013 54.866 5.83109 53.8219 5.60841L42.9609 2.97833C42.2454 2.82116 41.6023 2.63786 40.8948 2.47527C40.3667 2.35374 34.8967 0.995934 34.6736 1.00001L22.2552 3.99465C21.5837 4.1474 20.8864 4.31815 20.1861 4.49534C19.4743 4.67559 18.7869 4.81408 18.1131 4.99264L15.5268 5.61825C14.8792 5.75233 15.1793 5.73672 14.9915 6.3148C14.3424 8.30705 10.6882 9.95373 8.82009 10.7888C8.15616 11.0858 6.38368 11.8041 5.60974 12.0329C5.43484 12.0845 5.27588 12.098 5.27588 12.2684V38.9419C5.27588 41.8045 5.92235 45.2716 7.05026 47.8308L7.48655 48.8844C7.85152 48.8077 8.07725 48.586 8.44222 48.51L8.001 47.4618C7.56774 46.3528 7.21643 45.3035 6.95352 44.1223C6.59728 42.5224 6.35106 40.8588 6.35106 38.9419V12.8031Z" fill="#00509E" stroke="#00509E" stroke-width="0.177175"/>
<path d="M1.06567 59.5987L3.08816 50.6274L12.2154 46.6336C19.6836 52.0887 25.7084 52.7524 32.1767 52.7368L35.0622 51.6028L36.0479 53.1993C46.2581 53.4717 52.6856 50.5555 57.8398 46.9875L66.0217 50.7292C66.6559 53.6021 67.3669 56.8312 68.0011 59.7041C59.7703 64.1007 52.5594 68.4368 36.7914 69.7287L34.564 71.6795C33.8579 71.0926 32.8864 70.2882 32.1803 69.7013C22.618 68.6893 11.0101 66.634 1.06567 59.5987V59.5987Z" stroke="#00509E"/>
</svg>
